/* XPM */
static char *d74474a00baf4815a0658a2cc38e2cc3oKIxAaD27nTQ7ymF[] = {
/* columns rows colors chars-per-pixel */
"64 64 256 2 ",
"   c #113A35",
".  c #353918",
"X  c #364F17",
"o  c #17532C",
"O  c #0A4738",
"+  c #144D35",
"@  c #17493A",
"#  c #095637",
"$  c #14533C",
"%  c #1C533B",
"&  c #1B5A3C",
"*  c #175736",
"=  c #124B2B",
"-  c #234A3D",
";  c #22553C",
":  c #245A3D",
">  c #275A38",
",  c #365536",
"<  c #32522A",
"1  c #1C643C",
"2  c #18683B",
"3  c #19723D",
"4  c #126634",
"5  c #23633D",
"6  c #276739",
"7  c #27783C",
"8  c #346D36",
"9  c #4A542C",
"0  c #4D6C3A",
"q  c #696F37",
"w  c #163A49",
"e  c #113C52",
"r  c #1B4D4C",
"t  c #174845",
"y  c #0A5646",
"u  c #1C5444",
"i  c #1D5B44",
"p  c #1B544B",
"a  c #1D5B4B",
"s  c #155847",
"d  c #194A55",
"f  c #1D5C53",
"g  c #1A5656",
"h  c #0C4F51",
"j  c #244C48",
"k  c #235543",
"l  c #235C43",
"z  c #23544B",
"x  c #2B544C",
"c  c #245B4C",
"v  c #2B5C4B",
"b  c #2A5A45",
"n  c #345C4B",
"m  c #244D55",
"M  c #245453",
"N  c #245C53",
"B  c #2B5C53",
"V  c #245A5B",
"C  c #29575A",
"Z  c #335A55",
"A  c #304F51",
"S  c #1C6343",
"D  c #1C6B44",
"F  c #1C634B",
"G  c #1D6B4C",
"H  c #156948",
"J  c #1C744C",
"K  c #1A7648",
"L  c #1D6353",
"P  c #1C6C54",
"I  c #1D6B5C",
"U  c #186558",
"Y  c #1C7453",
"T  c #1C735B",
"R  c #1B7A56",
"E  c #0D6B4D",
"W  c #236344",
"Q  c #236C44",
"!  c #23634B",
"~  c #2B634B",
"^  c #246B4B",
"/  c #2B6B4C",
"(  c #2B6844",
")  c #356848",
"_  c #25734C",
"`  c #2B734B",
"'  c #237B4C",
"]  c #287745",
"[  c #32734D",
"{  c #37794B",
"}  c #246454",
"|  c #2B6253",
" . c #246C53",
".. c #2B6C53",
"X. c #24645B",
"o. c #246C5A",
"O. c #2B6B5B",
"+. c #2C635C",
"@. c #366A56",
"#. c #237454",
"$. c #2B7253",
"%. c #237B53",
"&. c #2B7B54",
"*. c #24745B",
"=. c #2C735C",
"-. c #247C5B",
";. c #2B7C5C",
":. c #367657",
">. c #1B5A64",
",. c #1F4F65",
"<. c #275565",
"1. c #1C6865",
"2. c #1B7266",
"3. c #236C63",
"4. c #276667",
"5. c #356664",
"6. c #2B7C63",
"7. c #287766",
"8. c #367965",
"9. c #2C7077",
"0. c #457759",
"q. c #49724D",
"w. c #717E51",
"e. c #487B64",
"r. c #577960",
"t. c #6C7F67",
"y. c #837E22",
"u. c #1D8355",
"i. c #1D8644",
"p. c #29824B",
"a. c #368449",
"s. c #248254",
"d. c #2A8455",
"f. c #25835B",
"g. c #2A835B",
"h. c #2C8A58",
"j. c #338658",
"k. c #359158",
"l. c #2C8B64",
"z. c #298665",
"x. c #368866",
"c. c #36946B",
"v. c #388774",
"b. c #319472",
"n. c #488746",
"m. c #478759",
"M. c #558959",
"N. c #4B9254",
"B. c #718953",
"V. c #458968",
"C. c #4C906D",
"Z. c #6C8D6B",
"A. c #4DA879",
"S. c #75A877",
"D. c #41883B",
"F. c #AF943A",
"G. c #DAA81A",
"H. c #E6AA1B",
"J. c #E6B31E",
"K. c #D9AA28",
"L. c #D8A937",
"P. c #D6AF32",
"I. c #E8A828",
"U. c #E7B42A",
"Y. c #E5A937",
"T. c #EAB637",
"R. c #F7BB39",
"E. c #F8B230",
"W. c #E59D26",
"Q. c #FCC72B",
"!. c #EBC83C",
"~. c #FCC43B",
"^. c #FDCC3B",
"/. c #F8C736",
"(. c #FAD136",
"). c #E9CB32",
"_. c #FFC31B",
"`. c #8E9051",
"'. c #AB974F",
"]. c #9BA750",
"[. c #B0A951",
"{. c #A99C63",
"}. c #8EA971",
"|. c #B2AA6A",
" X c #8F9266",
".X c #D8AA48",
"XX c #D1B050",
"oX c #E7B746",
"OX c #EDB749",
"+X c #CCB666",
"@X c #B6C378",
"#X c #D9C956",
"$X c #EBC848",
"%X c #F3CC43",
"&X c #FCCC44",
"*X c #FDCB4A",
"=X c #F6C748",
"-X c #EAD246",
";X c #F9D248",
":X c #EAC857",
">X c #F3CB54",
",X c #F7CA58",
"<X c #EDD258",
"1X c #FCD453",
"2X c #FEDC53",
"3X c #FDD55C",
"4X c #FEDC5C",
"5X c #F3D459",
"6X c #FFE35A",
"7X c #FEE148",
"8X c #D7C96F",
"9X c #E7C765",
"0X c #F4CC65",
"qX c #FDD564",
"wX c #FEDC64",
"eX c #FDD46C",
"rX c #FEDB6B",
"tX c #F5D86A",
"yX c #FDDC73",
"uX c #FDDD7B",
"iX c #F9D775",
"pX c #E8D174",
"aX c #FEE264",
"sX c #FEE26C",
"dX c #FFEB6B",
"fX c #FEE374",
"gX c #FEE47B",
"hX c #FEE87A",
"jX c #DCE068",
"kX c #54B287",
"lX c #6CAF8C",
"zX c #569581",
"xX c #65C597",
"cX c #91B491",
"vX c #96AE8D",
"bX c #B9D6B2",
"nX c #ACCE9F",
"mX c #FFDC82",
"MX c #FBDB88",
"NX c #E3CF89",
"BX c #FFE484",
"VX c #FFEB83",
"CX c #FFE48A",
"ZX c #FFEB8B",
"AX c #FEE998",
"SX c #FDF18F",
"DX c #CAD8B3",
"FX c #FBECA6",
"GX c #F7EBB4",
"HX c #F5F2B3",
"JX c #D5DD9F",
"KX c #E8F6C9",
"LX c #F8FED4",
"PX c #F0FACE",
"IX c #EAFDE0",
"UX c #87BEC1",
/* pixels */
">.>.d d w w w w ,.,.>.3.o.*.*.P U g X.s a @.l l l W ~ & ! W & l f g 4.d j k ) > ) ( l W l c i l ; : > 8 8 8 8 6 6 / @.O.+.f L L ",
">.d <.m m w w d 5.d 4.7.;.H H 7.s f s 5.} $ l ! ! W S i / ! l ! | N g V z @.b % * W W S W & / W @.l ) 6 8 o o { 5 W l s N X.o.f ",
"d t d m Z m m t d V s *.&.kXY P 7.y L } $ =.=.! ! ! a ! O.c c v ~ k z +.M u i a F F S 1 Q 6 ] Q ~ $ i @.% W W * W W l ~ ! ! ! p ",
"t p r j t j j M r f  .g.%.2 Y *.P P #.=.$.F F $. .$. .=.O.c v ~ b l N p a O.o.s L F ^ 1 1 6 6 Q #.*.s s M r z c l * / [ W l :.c ",
"e.@.@ j @ j   t a F _ D h.A.J Y J %.J J J %.K %.%.;.#.$.^ i ~ ~ v c N f F C.;.*.F L G * D Q $.H H #.L f g d r z l C.] 6 Q C.[ @.",
"v v x x x b k ~ & ^ ' p.] p.g.G J K s.A.' s.s.%.f.f.Y J S ^ / c | a 8.6.*.6.#.x.o. .i & ^ # 6.;.f.c.6.3.s X.t u C.{ ] ] N.Q / @.",
"b b v - n k % + ` &.] 7 7 3 #.#.g.d.c.J %.kXR f.z.f.-.#.H $...! N N 8.=.;.-.f.Y I L F / W 1  .x.h.s.R P O y 8.:.[ ] a.7 m.Q &.$.",
"b b b - b + % W _ ] 7 a.7 Q G s &.&.g.H g.z.R z.R R -.#.H  .F ! a a F ;.f.R f.Y 6.L ! [ [ lX .H K kXs.z.v.v.x.* { { a.k.V.%.%.;.",
") % b @ % : $ W S j.7 p.] 1 F t ..W ^ ;.6.-.z.7.z.R *.*.F p c f a s 7.;.R %.%.G v.O.^ ( ] ] &._ D s.f.b.J E ;.^ { &.C.d.h.c.z.Y ",
"e.~ @ k % % ~ ^ ^ Q j.] a.:.} s $ $ O.o.x.6.7.*.*.Y *.=.} a p t f f v.H %.%.#.F O.i [ { { ] ] &.#.g.R z.R f.J Q Q { j.x.s.kXz.z.",
":.V.@ O % l ~ / $._ ` ` Q :.p t u s o.7.7.7.3.7.o.o.o.O.| M r r p s a o.x.;.&.G O.} :.W 6 j.&.&.6.6.z.R R u.H ^ 1 ` _ # c.b.b.b.",
"l :.@.; ; : * / ! ^ $.` A.i C.r r s 4.7.7.3.3.o.a v v n n n x x @   0.v :.` :...O.} O...[ [ S ^ L 8.7.2.z.E Y ^ * & ^ # l.b.b.z.",
":.% b l : ) W ~ } $ i & & % @ t g h >.4.9.4.N B n q.r.vXDXIXIXIXLXLXKXDXcX) :.@.f 3.X.a ! :.) ! } 3.T T E T F  .i $ s #.# x.x.;.",
"@.: b > ; ; ) @.p s s ! & + O t d >.4.4.V +.0.bXPXPXPXHXGXGXGXGX8X+X|.|.JXnX}.S.@.B r N O.@.l ~ | O.P T T I L N @ i s F #.#.;.^ ",
") ) : > > > > % a s s $ * = @ r V 5.5.Z n bXKXHXFXpX9X:X9X0X0X9XgXZXCXMXAX+X|.{. Xt.Z j z O.+.V.^ ^ Y Y T I s p z u a # ^ $.& @.",
"~ ; ; ) > 6 ( ~ $ c u i & & : l x n n vXLXPXFXpX9X$X=X*X&X~.&X*X=X>X,XgXBXuXmX+X|. Xt.q.x V X.lXlXlXH Y P I X.X.u $ % ^ G ^ % ; ",
"& % Z - @.) W i O i % : * : 6 o ) , DXHXFXCX:X,X&X^.^.R.^.^.H.~.*X=X*X&XOX,XgXBXXX+X{.Z.Z g f ..lX0.! P 3.U X.p & ~ ( W ^ S i l ",
"& % @ j + * & * @.@.+ / / [ 8 8 < LXHXHX9X,X*X~.~.Q.H.J.G.U.H.U.I.I.G.T.*X*X3XqXfXgX+X|., Z 8.@.; 0...L 3.1.U X.F $.~ l ! ^ i + ",
"5 > ; % : * = [ / @./ * & :.q.< KXGXAX#X>X;X/././.I.T.K.4X*X1X;X1X4XU.G.G.K.1X=XfXfXgX+X{.9 n z +.5.p X.4.1.4.U U } c p i s p c ",
"> = ; : 5 5 W Q W W S 1 & > < JXHXFX9X>X;X/.Q.J.G.1X1XwX>X>X;X;X2X2X1X1X2XK.K.$X$XrXfXuX+X{.9 , z V M +.g >.9.1.3.3.g p s c | c ",
"; ; + l * W [ * W ^ D D = { bXHXpXeX>X!.R.U.G.U.6X%XwXrXrXrX3X1X;X;X;X1X4X4XwXL.,X>X:XhXmX+X{.. x g t u 8.7.1.2.3.U g V v u u u ",
"; % u $ W Q & & + & H _ 1 q.KXNX9X,X*XU.K.*X*X4X%X1XwX<XeXrXqXP.>X4X6X$X5XwXqXrXY.OX3X>XVXiX+X{.- t @ $ O.f y 2.U g f N a @ k ; ",
"% @ p s i $ * i F J -._ ( bXPXFX0X=XK.U.4X3XwX3X;X2X5X:XeXgXrXqXeXeX$X1X4X4XrXwXqX3X*X>X:XZX0X'.<   % ! ..=.7.2.1.3.L t @ ~ @.+ ",
"@ zX+ i i $ ^ $.G J -.j.0.PXHXFXgX>XP.1X3XrXqXsX1X2X$XsXyXuXyXeX.XiX>X6X2X4X5XwX4X4X=X1X:XhX0XXX`., O =.^  .6.T 7.U s a u + % + ",
"+ ~ / l ..S D G J f.%.` bXKXGXAXCXoXP.4X4XwXwX>X%X!.>XfXBXmXuXuX.XyX$X%X&X!.$XwXaXaX2X!.;X$XfXXX'.q - O.} i -.T o.o.8.i u @ + * ",
"o [ o ( / & D J f.g.$.M.LXGXFXFXAX9XwX3XaX5XaX$X6X$XsXyXmXCXiXuX.XqX4X1X%X%X$XsXrX<XaX!./.%X3X.XXX{.> F !  .Y Y *.v.^ ..$ + :.& ",
"> > { [ ) [ &.K h.h.{ IXHXFXCXBXmX9XsX4X$X3X$X>X>X3XhXgXMXCXBXyXL.P.wXwXaXaXwX0XrXfX4X6X&X;X5XfXoXF.}.) _ D J g._ ;.Q ` & :.o o ",
"o > cXo * [ j.' k.j.M.PXNXpXfXfXyX0X:X$XwX$XfX<XsXfXyXBXCXpXgXhXaXP.L.rXwXwXwXrXqXfX5X2X%X%X,XhXW.oX`.q.Q d.' D ] ' 6 j.:.:.> > ",
"; * * ) e.lX&.' K j.Z.LX8X0X$X;XP.>X3XsXfXrXrXfXgXfXgXuXuXVXiXfXsXsXgXyXfX:X$XOX3XT.aXaXwX>X,XeXE.I.XX`.N.' K d.A.p.xXj.[ o > > ",
"; : * : i :.G d.%.Q Z.LX8X:X;X!.K.4X$X>XqXfXgXgXtXgXgXfXgXgXhXfXfX<XeXfX:XsX1XR.L.L.3XwXsX>X,XwXI.I..X].8 d.j.3 p.4 3 ' 1 { 6 o ",
") o : W i F G ;.g.^ M.LXNX0X$X%XP.3XwX>X:XfXyXfXhXgXtXyXhX:XsXfX<XwXsX$X=X&XR.T.L.rXwX3X5X;X>X4XI.R.Y.F.8 %.f.j.3 p.s.%.$.5 > > ",
"; : : l c a =.=.6.~ r.LXFXmX0X>XP.qXqXwX5XtXfXrXtXrXhX:XhXrXsX<XaX$X$X6X4X~.&XK.qXqXrXrXaX$X$XaXU.I.Y.F.0 #.T ;.' K R J ^ & : ) ",
": b b z p N B z | v , KXGXAXAXVXL.qXwXwXrX,X,XrXwXsX:XfXyXfX-X-X%X6X%X&X&XR.K.=XsXtXyXiXyX:X<XaXI.W.Y.F.0 ;.6.# _ 3 D #. .! l b ",
"l l k B M M j x x k n DXHXFXAXCX.XwXwX5X$XrX3X4X;X%XwX3X$XaX6X7X7X&X^.^.R.U.T.3X5XtXgXuX0XVX5XaXI.E.Y.'.0 i F P ` Q W ! i i c v ",
"v z x z M t t j r j n nXFXAXCXCX.XrXrXqX<X<X;X7X7X(./.7X%X&X/.(.(./.^.~.I.I.1X4XaXwXrXyXVXhX%X~.E.W..X`.= + O.a W W ~ ~ c v B v ",
"Z Z Z z r t @ t t j x }.NXgXeXyXrXOXwXwXwX5X6X7X).Q.Q./.^./.^.Q.(.(.Q./.H.&X4X3X3XwXeXyXSX:X=X~.H.E.XXq ) | u | k k b v v c v z ",
"C Z x x O r O t t r t Z.8XpX>X*X*X*X1X4XaX5XaX6X&XR.^./.^.~.E././.Q.Q._.G.U.K.rXfXfXiXuXSXZXrX=XE.Y.'., b +.c | @.v v v z z x x ",
"C m A x r O @ @ t @ @ q.@X8X5X~.~.U.1XaXaXwXsX,X=X&X/.Q.Q.^.E.~./.(._.Q.Q.U.P.rXiXuXBXSXmXBXhXY.I.oX`.> @.+...c @.| v v x x A Z ",
"5.m 5.C N t c @ @ + u ( }.@X<X%X&XK.sXqXeXrX3XwXR.&X/.(.(.G.H.~.U.~.Q.Q.^.G.L.yXgXuXCXZXZXyXhXL.oX'.9 i +.a F ..} c c c M M A A ",
"C C C C t N N $ = * $.^ M.}.#X;X^.%XP.yXyXeXyXY.&X/.(./.J.U.I.I.*XU.&XR.~.T.L.eXiXiXSX9X:X3X=XoXXX`.> a f O. .F  .} } f p V Z A ",
"+.g V V p X.a $ = o H #.$.S.].#X(.(.$XsXyXiXeXOX~.^.J.J.K.3X3XqX3XwXY.T.OXY.Y.eXeXVXfX<X-X%XOX.X'.0 b f | } #  .} F L L g g Z B ",
"f f f X.f p } & 1 x.J Y x.V.}.[.-X(.-XaXfXeX0XoXK.K.K.4X3XrXsXsXsX5XrXeXW.OXL.eXBXhX:X!.;X&XOXXXB.n z p z u $  .! a s F f 5.V N ",
"X.s X.X.a } ! ^ lX&.c.z.E j.M.}.8X-X-X7XdXhXBXiXL.qXwXwXuXtXrXtXtXVXtXyXfXL.yXBXZX:X=X&X/.=XXX`.n X.5.z % k + $ ~ % ..s N f X.X.",
"X.f s P  .! 1 _ x.c.l.c.K J :.M.|.8X-X!.-X$XVXuXyXrXyXyXmXuXgXiXiXgXtXyX0XgXBXCXCXyX4X~.U..X'.0 O.1.+.@.% % + ~ :.% / ..O.} f a ",
"f o.U H G &.D j.l.kXc.l.K K G x.M.`.jX-X!.;X>XhXhXtXtXuXMXMXiXmXCXpXSXVXVXhXVXZXSXgXfXK.oX'.X ) I 3.u @.+ ! % ..8./ ^ ..8.=. .} ",
"} a U zX$.1 A.d.kXf.f.c.u.K g.;.;.M.].#X1X/.!.>X5XsXVXhXBXSXiXmXCXZXhX$X:X<X:XyXBXBXXXXX[.X ) s F o.:.~ :...:.S * j.V.^ :.$ i =.",
"! V.7.y D ' c.l.xXh.K K Y J %.K -.` q.[.#X=X&X^.;X!.%X=X>XaXdXdX-X%X=X=X%X%X%X*XrXXX|.B.< ) @.L s ^ 5 [ G #.#.#.R c.g.&.x.V.S F ",
"8.=.7.7.C.' J s.c.l.J K z.Y s.K -.#.) B.].XX:X$X!.;X&X~.&X;X-X!.^.~.&X&X%X%X%XoXXX[.q , l } f f s _ ` ` %.g.c.l.f.s.d.D 4 D ! O.",
"8.=.*.7.Y Y R l.R b.z.x.Y H J K K ' 4 8 B.`.].[.<X>X*X&X~.^.&X/.^.~.&X$X5X#X[.`.q X , k a 7.U E v.H x.] ] &.D &.h.d.K k.3 D 7.4.",
"=.6.;.*.J Y Y Y Y H 6.Y Y H J J 4 3 ' 4 ] cXM.`.].[.#X#X0X:XoX:X,X:XXXF.y.q X < , n c } C.y 7.v.b.l.D k.7 ] m._ ' k.d.h.h.;.3.7.",
" .=.#.J J g.f.Y *.H *.=.P G _ 4 4 H d.%.J ;.[ M.B. X}.`.`.`.`.`.`.w.w.0 < 8 = b @ O } F x.v.l.x.A.%.j.a.n.{ [ D g.H d.' ' g.*.*.",
"#.#.%.' s.d.g.g.6.F o.s  .^ x.D D 2 h.K l.Y z.x.$.( 0.Z.Z.q.t.r.q.) > : ( & ! a 7.v.o.#.%.g.l.c.Y J ` { n.0.1 _ %.x.g.g.&.D ;.;.",
"%.%.s.s.p.p.d.x.P F o.o. .x.Q 1 1 ` ] K h.R z.T *.*.O @.@ t t t | + / 1 1 S H T z.-.l.H K s.l.A.J #.* ) M.0.[ _ H P *.#. .&.%.f.",
"-.f.d.p.d.h.h.;.-.6.o.f  .;.^ 1 [ 1 7 a.4 H P I U o.} O t d r p a ! S _ 4 # -.-.l.R f.f.R f.A.f.g.F + ) ) m.` D #.P *.C.6.;.%.K ",
"z.z.g.K s.h.d.H P 6.U 3.P #._ D [ ] 7 a.a.Q v.f f p z @ t t O p u W & Q 2 D g.l.z.z.H f.z.R l.b.H # W ; ) > { ] &.x.*.P o.*.Y kX",
"P T f.J %.s.g.-.T 3.I 1.P P D D Q ] a.7 S.m.~ B t t @ t   t t t i ~ ` 1 ` j.%.l.f.f.f.s.f.b.z.T %.D W * : { 7 a.k.kXx.P *.*.-.H ",
"I T 6.;.# ;.*.6.7.I U 3.s  .D Q 1 6 D.n.n.S.b x A j   j   t t V } F x.;.lXD g.s.f.%.h.s.l.;.T G G ^ ^ / * ] 7 7 k.j.V.;.x.*.P 7.",
"U 9.y 6.s F O.X.X.U g f f F S ^ 6 { N.D.N.q.) e.Z Z j j t r C X.L ^ & &.&.&.K j.d.h.' h.' &.*. . . .G F _ ] 7 3 7 k.d.;.*.7.I I ",
"4.d 5.N 5.r t M V UXg t p N ! ^ ( 6 8 n.n.M.> n n @.@ z z r M p } S ^ ` &.j.Q ' ' 3 p.] &.^ =.a } L O.a ;._ 3 N.p.p.K Y 7.1.9.9.",
"g h d d m t w d w t r V p N p v W m.q.n.M.q.( @.@.zX@.u v B p N c i W 5 5 ` 2 2 ] 4 ] ] [ :.~ c N p p L y x.k.h.j.p.f.7.v.>.9.9.",
"g d w d w e m w t d d d r r M z B @.e.) { ) 0.0.b ; :.@.B u B B B B c v l ( W Q ` 4 { 7 ( [ l z M N V a 8.^ x.h.s.f.z.7.U 9.9.1.",
"4.g 9.d d e <.w d C m C r d m M z k k ; ) 0.k @.@.@.@.b z c z x M M B c ~ % ~ W 5 6 6 { 5 W k x u z z u & x.d.K u.xXT 1.9.1.1.1.",
"4.>.4.d e e <.,.d d V g V m <.C N c l ~ k ; @.@.:.) > @.B +.z B N | c l : % W W 5 5 6 ( ) ; n x j - @.> > { ] c.i.R T T I 3.2.I ",
"f 1.g d e d e e d d d V V 9.m m M i l b v @.@.@.> 6 ; v c z B c c c l % i & W W Q 5 * ( : ) - x n ; ) 8 6 6 N.i.u.u.Y *.o.P T E "
};
