/* XPM */
static char *_5e4281684fa48bfea3092c8b4c5ed9a1XazVQKVi3C96U6H[] = {
/* columns rows colors chars-per-pixel */
"64 64 256 2 ",
"   c #030200",
".  c #0C0201",
"X  c #020C02",
"o  c #0A0C07",
"O  c #130200",
"+  c #1B0201",
"@  c #190C08",
"#  c #011404",
"$  c #061608",
"%  c #171509",
"&  c #181713",
"*  c #091814",
"=  c #230301",
"-  c #2B0301",
";  c #240A03",
":  c #2A0B08",
">  c #340401",
",  c #3C0502",
"<  c #3B0B04",
"1  c #3C0D0A",
"2  c #340A07",
"3  c #29150B",
"4  c #3B140D",
"5  c #36150B",
"6  c #2A1A14",
"7  c #391814",
"8  c #2D0D11",
"9  c #042919",
"0  c #17261B",
"q  c #0D3115",
"w  c #38251A",
"e  c #292219",
"r  c #193726",
"t  c #183B37",
"y  c #112F26",
"u  c #292A26",
"i  c #382B25",
"p  c #283627",
"a  c #37362A",
"s  c #393935",
"d  c #283734",
"f  c #430502",
"g  c #440A05",
"h  c #440C0A",
"j  c #4B0A06",
"k  c #550A07",
"l  c #46120C",
"z  c #55130C",
"x  c #471A15",
"c  c #581A17",
"v  c #490E12",
"b  c #6A0D08",
"n  c #7C0C04",
"m  c #760C08",
"M  c #6A130C",
"N  c #77120A",
"B  c #671815",
"V  c #761514",
"C  c #720E10",
"Z  c #49241A",
"A  c #55231B",
"S  c #4C331F",
"D  c #67221D",
"F  c #462A25",
"G  c #552623",
"H  c #4C352B",
"J  c #47362B",
"K  c #55392D",
"L  c #493936",
"P  c #553B34",
"I  c #552E33",
"U  c #5E2421",
"Y  c #19542C",
"T  c #0B4B37",
"R  c #174A38",
"E  c #0A5739",
"W  c #14533C",
"Q  c #1C553C",
"!  c #1C5B3C",
"~  c #185636",
"^  c #184126",
"/  c #284736",
"(  c #374639",
")  c #235B3C",
"_  c #255939",
"`  c #34583D",
"'  c #314E2F",
"]  c #176836",
"[  c #26663A",
"{  c #28713D",
"}  c #45453A",
"|  c #5B433B",
" . c #584438",
".. c #4D4D36",
"X. c #634A3D",
"o. c #64453A",
"O. c #68523D",
"+. c #406E3F",
"@. c #143B4A",
"#. c #103D4F",
"$. c #343A43",
"%. c #4E3D43",
"&. c #194947",
"*. c #0B5745",
"=. c #145443",
"-. c #1C5444",
";. c #1C5B43",
":. c #1C564B",
">. c #1B5B4A",
",. c #14584A",
"<. c #1C4C53",
"1. c #194958",
"2. c #1B5956",
"3. c #0E4548",
"4. c #254C46",
"5. c #384845",
"6. c #235543",
"7. c #245C44",
"8. c #2A5B45",
"9. c #24554A",
"0. c #2B554C",
"q. c #225C4D",
"w. c #2B5B4B",
"e. c #2D5444",
"r. c #355947",
"t. c #235C54",
"y. c #2B5B53",
"u. c #275757",
"i. c #385956",
"p. c #2D4C54",
"a. c #1D634B",
"s. c #1B6C4C",
"d. c #176746",
"f. c #1C754A",
"g. c #1B6756",
"h. c #1A7555",
"j. c #246344",
"k. c #2B6344",
"l. c #23634B",
"z. c #2C634B",
"x. c #236B4C",
"c. c #2B6B4C",
"v. c #296C44",
"b. c #36684A",
"n. c #2B734B",
"m. c #287747",
"M. c #34764A",
"N. c #236453",
"B. c #246C53",
"V. c #296958",
"C. c #336C54",
"Z. c #376657",
"A. c #247453",
"S. c #2D7354",
"D. c #247A54",
"F. c #23745B",
"G. c #2B735C",
"H. c #2A7C5B",
"J. c #287C57",
"K. c #367757",
"L. c #1D5462",
"P. c #255865",
"I. c #2B5369",
"U. c #1B6765",
"Y. c #1D6F65",
"T. c #286964",
"R. c #297764",
"E. c #347964",
"W. c #326D6F",
"Q. c #484746",
"!. c #594845",
"~. c #475545",
"^. c #57554C",
"/. c #484C55",
"(. c #455757",
"). c #585755",
"_. c #564C52",
"`. c #644C44",
"'. c #6B4D43",
"]. c #614947",
"[. c #744A46",
"{. c #6C544A",
"}. c #685347",
"|. c #735A4C",
" X c #74564A",
".X c #6A5B56",
"XX c #735C53",
"oX c #785D56",
"OX c #476857",
"+X c #57665A",
"@X c #457759",
"#X c #49754E",
"$X c #67635C",
"%X c #78635A",
"&X c #7A614D",
"*X c #495E61",
"=X c #595E65",
"-X c #4A6662",
";X c #467A66",
":X c #567467",
">X c #686666",
",X c #7A6A64",
"<X c #6D7672",
"1X c #840A09",
"2X c #82120D",
"3X c #8B5450",
"4X c #82675C",
"5X c #836C64",
"6X c #866D69",
"7X c #89736C",
"8X c #897874",
"9X c #967C79",
"0X c #96746E",
"qX c #A67D7A",
"wX c #29844B",
"eX c #2B8354",
"rX c #2C845B",
"tX c #278658",
"yX c #358859",
"uX c #368952",
"iX c #2C8864",
"pX c #378865",
"aX c #399669",
"sX c #389073",
"dX c #1E814F",
"fX c #4E8955",
"gX c #4D8C70",
"hX c #6E8577",
"jX c #4EA578",
"kX c #8C827C",
"lX c #9C837D",
"zX c #96837B",
"xX c #A2877E",
"cX c #717A81",
"vX c #2E7480",
"bX c #739185",
"nX c #56B186",
"mX c #70AE8F",
"MX c #5F9D84",
"NX c #69CBA4",
"BX c #9D8682",
"VX c #9D8A84",
"CX c #9A8887",
"ZX c #8E9893",
"AX c #A18583",
"SX c #A38B85",
"DX c #A48D8A",
"FX c #A98C88",
"GX c #A7928C",
"HX c #AF9291",
"JX c #90B5AC",
"KX c #95AC9F",
"LX c #CFB4AF",
"PX c #A4CEBE",
"IX c #CEE9D9",
"UX c #BFE8D8",
/* pixels */
"P.L.1.1.@.@.@.@.I.I.P.V.V.F.h.g.g.2.U.,.2.V.>.>.a.l.8.6.w.z.6.6.w.9.0.9.<.0.i.y.z.z.! j.~ ! d.~ 7.7.~ v.{ M.{ _ w.Z.Z.Z.T.2.a.g.",
"L.1.P.P.u.t @.@.I.#.W.E.R.s.g.R.*.g.,.R.a.3.>.l.a.l.l.6.8.z.7._ r.0.0.0.9.u.Z.-.Q z.j.j.! j.C.l.c.7.C.v.v.Y Y #X7.r.9.-.i.V.B.,.",
"<.<.<.<.u.p.p.<.p.u.=.F.F.nXh.g.R.*.s.g.E G.C.a.N.x.d.j.C.7.y $ OXOXi.w.q.-.*.a.q.! ;.c.M.w.C.C.S.W ! n.~ [ k.! ) k.7.k.l.l.a.;.",
"&.<.&.&.t 4.&.9.<.:.g.K.D.] h.h.s.s.A.S.G.a.a.S.x.A.A.S.q.w.d * ).p r 4.:.R.G.*.x.l.z.8.r.@XgX:XK.c.W ! j.Q 7.) [ ~ b.C.k.l.K.t.",
"-XZ.@.4.R e.t R ;.! m.m.yXjXf.f.f.D.f.f.v.D.x.J.D.iXA.S.z.d & & .X& * r z.gXR.G.l.r y q y R d R x.A.a.a.>.=.W Q ` jX{ [ v.gXS.C.",
"w.Z.0.0.0.8.) l.! f.wXwXwXwXtXs.f.m.wXjXf.J.eXJ.n.iXx.b.e.0 . 8 4XF o $ r.;XV.gX7.9 $ 9 d 0 * y K.sXR.V.T t.W Q fX{ wXwXgXv.C.C.",
"w.8.w./ 8._ Q W S.S.{ { { ] D.F.rXJ.pXf.wXnXdXtXpXJ.K.r.o 8 7 2 [.F ; % d :XOX5.X d /.>XZX_.p.*XC.F.F.g.3.3.E.G.{ { uX{ yXx.H.x.",
"8.8.8.Q w.R R j.n.m.m.wXwXm.s.*.D.A.rXd.iXtXJ.eXS.^ $ 3 7 G 7 , 3XG - w 6 % & o   Q.$._.ZX/.%.(.8.mXE.pXsXsXpX=.M.uXuXaXfXeXH.D.",
"z./ 8.R Q -.W j.j.eX{ M.wX[ a.T F.g.F.h.R.h.rXK.fXa 3 1 c G l g 3Xv 2 1 8 8 8 @ . %.>X<X/.d $.=XZ.K.R.sXY.d.R.x.yXM.gXwXtXjXtXh.",
"@Xz.~ 6.Q ~ x.x.x.v.uXm.uXK.a.,.*.*.V.R.H.E.@X` ).I A U B c z , 3XG , , 2 1 7 8 O s <XcX$.$./.*XZ.;XG.iXh.iXD.s.n.K.yXpXtXnXtXiX",
"K.gXR T Q 7.z.c.S.c.n.n.v.C.:.3.3.2.T.T.;X:X~.w x B V B k c z g 3XG , , , h 7 = O $.%./.<XcX=X*Xi.C.E.h.h.tXd.d.a.S.B.E aXaXjXiX",
") @XC.6.! ! W x.a.x.K.n.jX-.gX:.u.<.u.Z.OXd w A k V C C k M j < 3XA 2 , f f v = . /.-X*X*X*X/./.(.;XH.h.iXh.J.a.W ! B.E iXaXsXtX",
"C._ 8.7.[ b.j.l.N.=.a.! _ W R &.<.4.0.:Xs 7 c k V V n C M c j < 4XG < g g g v 8 . s (.-Xi.i./.p.i.z.V.A.h.h.d.B.;.=.=.g.*.sXaXh.",
"C._ 8.) Y _ b.C.=.;.W l.Q R T T t 4.$.}.7 z N b 1Xn b N B B j g '.x g l f f h : O 5.(.(.*X/.$.*XOXZ.N.F.h.g.a.2.R ;.W d.h.h.H.x.",
"k.b.) _ _ _ ) W >.:.=.W ~ T R &.i.u O 7 A V m n N 2XN M B B j , [.7 > g j j j 2 O %.*X*XI.i./.*Xi.E.G.a.h.V.=.-.q.-.d.T x.B.-.K.",
"r._ _ b._ _ k.z.=.q.=.-.) ) 8.5.0 @ Z z V N n 2X2Xn b b B B j h xXH > < j f h , + !.=X/.5.5.p./.-XbXZ.V.V.T.N.t.>.W ;.B.l.l.Q 6.",
"_ _ k.R #Xr.8.) W ;.~ ~ R / % 6 5 A z M M N n 2Xn n m b B v , - I 5 - > f g j , : 7 %._._.p./.$.y * 9 t W.t.t.t.>.a.l.j.j.l.8.6.",
"_ _ R Y R R ;.~ c.C.R #X~.w 6 < z M b b N N 1X2X1Xn b M c v > = : + - 2 > , , < v 1 8 %.%.%.=X%.. o * u -XI.u.N.>.G.l.;.B.z.-.R ",
"_ ) _ R 8._ W S.C.k.+.' ' o.A B V N N m n N n n N N M B z < = = w 8 = - 1 l < < v - 8 7 %.%._.%.O 8 F %./.i.4.p.V.N.;.-.;.-.-.w.",
"6.R Q ! l.7.l.c.[ ^ o w Z z B V N n n N n n n n V M B c h = = F !.I 8 + - 8 < 1 h 1 1 1 v 8 8 : 7 8 8X$Xo & * y Z.N.:.,.=.:.y.9.",
"~ 7.R 6.Q j.S.~ q q 6 x k b m n 1X1X1X2XN n m C b k j g - + 5 X.'.P 7 O + ; 2 2 > h , f j < < G 0XqX[.v : 6 e * y :.t.2.N.<.-.9.",
"R 7.! ~ 7.z.~ ~ q e Z D M b m 2X1X1X1Xn N b V B k , > > 4 Z P 4XoX}.L 7 3 : = - > v f f j f , A 3X[.c f 2 7 + & t 0.t.2.2.=.9.9.",
"W Q Q Q ) _ ~ ) ` J h M C n 2Xn 1X1X1Xm C M z z f , - < G o. X4X|.|.|.!.i ; + = > < h f f z f f j f f f f h - i e.W.y.,.=.q.Z.R ",
"T MXR 6.) ~ n.C.q 3 z V 2X2Xm m 1X1Xm b B c f , > > = = Z P o.o.X. .X.O.i ; + + - = > v , z j , f k k j j f > + * 8.:.,.,.W -.R ",
"R z.C.) b.! x.b.$ 3 D N m 1Xm b 2XC V 3XD , > > = 7 K o.'.|.3X|. XO. X&X{.`.| J O ; : - > l f f j g j f f z l @ # 8.K.g.T T ~ Y ",
"^ S.~ C.S.! d.v.+.w j N m m m N C V B V z , - + 7 F P `. X X{.o. .O.O.O.o.X.].H @ . + ; ; < 1 < h j f f j , , 6 / gXx.x.~ ~ K._ ",
"7.7.K.K.M.S.D.m.#X} z V 2Xm b N V M k j , - = 7 H L K  . .X.K H S  .O.o.P P X.H i 6 @ O ; 2 2 1 1 1 < g g , > w ` K.s.x._ M.Y Y ",
"~ j.mX~ E n.rXS.r % A M C N b M B k f > < 7 H {.|.%X%X|. X X|. X|.O.3X4X4XXX{.`.&X}.a O + @ ; - 1 2 < 1 < 1 4 @ # M.v.yXK.{ _ Y ",
"_ ~ ~ S.K.mXD.K.9 $ G B V V C B z , < > 5 Z F P J  .}.X.H H K O.o.K K O.'.K F K X.H i 6 3 + ; = 2 2 4 1 2 1 8 @ # v.mXuXM.Y _ _ ",
"_ _ ~ j.! K.s.@X[ w v U B k k j , - - Z | `.`. .P X.}.'.o.O.O. X[.[.'.O.[.o.X.O.|.o.O.O.| ; O + = 2 : : 1 8 8 u _ m.wXM.[ M.[ Y ",
"b.Y ) j.[ [ x.K.OXJ x c v j , > 4 5 3  .}.{.{.|.{.[.'.[.|.3X Xo.'. X'. X&XO.&X&X X|.'.`.}.7 + ; - - = - 8 8 : u ` m.m.n.[ ) [ ) ",
"` ) ) _ 7.7.K.Z.q % i 2 2 1 2 - w H Z J J H K | o.| | o.o.o.K S F I  . .X.o. . .o.o.K Z P J P i 3 = = ; = @ 8 % # m.M.v.C.) ! k.",
"8.7.7.6.6.8.0.0.9 X & 8 7 : + +  .XX%X%X%X%X&X{.O.|.|.O.&X&X|.|.|.%X%X&X&X}.{.|.XX{.{.{.oX.X%X}.| @ + + + 8 @ o # 8.k.c.c.! j.k.",
"w.9.9.w.9.0.4.0.&.d $.@ O = 6 6 } } J }.{.{.`.H }.X. . .O. .K  .J K  .}.}.}.!. .J F P `.P P J J i e 6 ; O .   * / Z.z.j.l.;.c.8.",
"y.6.0.9.0.4.t 4.4.4.(.o 8 L !.L w 3 w | `.}.`.H w 6 e ..X.X.J 3 ; w  .| !.{.K 3 + 7 !.}.P 6 @ 3 6  . .L i . e 5.r.w.j.l.;.l.Z.6.",
"i.y.u.0.4.t &./ t 4.5.  !.6X6X8X6 + w 5X6X%X6X4X5 O w ,X,X7X| + 6  .%X7X5X6XP + + {.7X7X,Xe ; e w %X6X7X>Xo +XbXr.;.q.x.l.8.0.e.",
"9.y.u.u.t 4.t &.R 4.t X ).CXzXGX .6 H AXFX9XAXSX .w !.VXzXVX,Xw DX9X7XAXAXFXoXF F 8XSXzXVXL w i }.xXlXVX<Xo :XbXz.a.N.a.t.0.9.0.",
"u.9.y.p.4.t @.R R R t X Q.kXVXVX8X{.XXAXFXFXFXAX7X,X8XGXVXGXzX5X6X9XAXHXAXFX9X7X7XBXFXDXSXzX%X|.0XFXFXVX%Xo (.;XC.N.>.,.>.0.p.i.",
"T.u.Z.u.0.4.9.R T R _ X /.CXDXlXFXAX9XAXlXFXSXBXDXGXSXGXVXVXSXGX6XlXFXDX9XDXHXHXSXxXlXSXSXGXzXzXxXxXGXSX,Xo e.Z.V.a.>.>.9.u.u.p.",
"u.V.u.u.&.u.y.=.T Q z.# ).DXDXAXDXSX9XAXAXlX9XDXGXVXzXzXzXzXlXlXBXlX9XBXSXBX9XqXlXSXlXlXxXzXxXSXxXzXxXGXkXX ( y.N.N.a.t.:.u.Z.p.",
"U.2.2.u.9.t.t.W T T 7.# } kXCXAXFXBXlXoXAXBX9XDXAX9X%X,X,X6X,X5X,X%X5X5X5X%X5X6XSXFX7X6XSX4X0XxXVXDXDX9X%Xo p Z.z.N.q.N.:.u.P.i.",
"2.2.2.V.t.-.x.*.B.pXQ # Q.8XDXAXDXHXDXlXAXAXAXBX%..XDXCXBX9XFXAXFXAXAXAXxXlXlXzXS 7XxX0XFXxXSXHXGX9XDXDX_.o r r.8.q.>.>.t.Z.u.u.",
"T.,.g.g.>.x.a.x.nXgX@X# Q.CXAXHX,X!..XBXCXDXDXBX6 J oX{.XXoX X{.'. X|.'.{.|.XX| + 4XGXSXBXoX`.}.%XCXDXBX6Xo p R c.=.G.W N.:.V.P.",
"g.d.,.g.B.s.*.D.aXyX;X# $XVXCXAXJ . w !.9XDXCXBXJ 3 8 3 : : : > 5 ; ; ; ; 3 3 3 6 8XSXSXBXw + 7 u kXCXGXkXo r z.K.=.c.V.V.N.t.a.",
"g.N.g.*.s.tXd.iXiXjXfX# Q.kXCX8XJ i w 6 .X9XDXDX,X{.].`.; ; 5 Z 5 x w 5 ; H `.`.5XkXGXzX%XJ Q.L i $X9XVX.Xo y c.yXn.a.S.E.G.V.N.",
"t.,.d.jXA.s.jXtXjXpXK.# s 8X>X6 a } a e @ !.CXCX,XoXP 3 5 Z Z 4 A x 4 G 5 2 w XX5XzXkX$X. GX8Xi a % !.7X.X$ / j.E yXpXn.K.W ,.G.",
"q.gXH.*.s.tXaXtXnXpX_ X ).8X.X. i } J L . J DXCX,X5XP + 4 Z l 4 l < x Z x ; 7 .X%XkXkX}.).kX).s L   s 8X,X  / n.D.aXtXrXpXgXa.d.",
"E.E.R.H.sXdXdXdXaXyXc.9 d <X.X  e J a s @  .zXDX7X{. .; ; x Z < = > l 4 7 + Z ,X,XkXkX<X>Xs i L s . L ,X~.' @XyXtXf.eXd.] a.s.B.",
"E.G.B.R.s.f.dXiXdXsXG.;X0 p ,XO I I I P + J xXxX7XXXK + 7 G 4 - = = 2 G 7 + w %X,XCXDX,XO a | P L ; !.!.$ IXmXwXuXuX] aX] d.R.h.",
"T.E.H.H.s.h.h.h.h.g.G.C.9   i HXLXLXLXLXLXzX%XzX5X&XP = 1 x x l > - 4 G 7 = F %X,X8X_.i HXLXLXLXLXLX}.. o IXZX{ wXuXwXuXyXtXh.R.",
"B.A.A.A.n.iXtXh.h.Y.Y.V.( s J BXHXHXFXFXBX,XoXSX7XoXK + 1 G c h j j z S l + w {.,XVXP @ GXxX0XAX9XDXL   & UXmXl.m.d.wXD.h.H.F.h.",
"H.S.D.S.D.eXrXtXdX*.F.9.:X<XkX%.I I I %.I !.,X8X.X X].= 7 A c c D c A A 4 + w XX%XzX{.F P K P P L %.i & & KX;XC.f.aXiXrXrXs.rXR.",
"A.D.rXeXm.eXtXpXh.g.G.Z.:XhXkXL w i i a a Q.^.^.a !.%.8 G G v v B k z Z x + w $X.X$X$X^.L a u i s i $X~.X hX@XC.a.h.H.A.h.rXD.H.",
"h.J.rXwXeXuXyXJ.F.V.V.-.y d $Xa ..^.~.~.s ( +X$X).,X_.O 7 x x c G c l x w O 6 ).).a } ^.u Q.+X+X).).>X} # hXK.j.F.s.F.sXR.H.D.f.",
"sXiXiXdXwXeXwXd.h.R.2.W.9 9 ` r ( ^.^.} p ( +XQ.Q.).%.. @ @ + = = ; + O @ . i >Xs u L _.u +X+X5.5./ } / X ` fXc.J.rXG.s.B.F.s.nX",
"h.h.h.h.wXtXiXH.g.R.T.g.T 9 / ^ ^ ` #X' b...^.( s s u   @ & & @ @ & 6 % &   & Q.>X<X<X:XOX:Xi.e.` ` / q q M.n.uXfXnXyXf.A.A.F.s.",
"Y.Y.R.G.E H.A.R.R.U.U.W.-.z.z.k.[ [ fXfX#XKX~.OX(.u X X a s %.%.} J %.%.$.& o 0 IXUXPXMXgXpXE.S.C.Z.b.Z._ { m.wXaXwXpXS.pXA.g.R.",
"U.W.*.R.=.>.F.V.V.2.2.2.,.q.7.C.[ #XfXfXfX{ b.:Xr.r X r a u 5.>Xs s u u %.u * * mXhXD.yXS.F.s.x.V.C.z.z.v.{ m.] wXyXyXrXG.R.T.U.",
"L.2.T.u.T.:.t 2.2.NX1.&.,.t.N.z.b.{ +.fXfXfX..r.i.r # ~.~.~.).>X_._._.!._.%.y o fXb.M.wXyXn.K.! t.N.C.:.K.n.] aXwXwXf.f.Y.2.W.vX",
"1.3.1.<.<.&.@.@.@.3.1.P.:.u.:.8.` $X#X#XfX#X{ OXOXb.p +X:X<X<XcXZX<X<XKXbXbXOX9 M.Y uX{ v.@Xb./ q.:.>.8.W yXaXuXtXdXdXR.W.L.vXvX",
"P.L.@.#.#.#.L.@.1.<.<.<.&.<.u.9.8.b.@XM.#Xb.#Xb.` r.OXhXbXcXbXZXPXbXZXPXJXJXhXfX{ Y { { b.M.r.0.q.N.q.;.M.{ uXtXtXtXiXiXU.Y.vXU.",
"T.1.W.#.I.#.I.@.<.u.u.u.3.<.<.u.-.) w.8.c.M._ b.#Xb.OXi.cXZX<X4.r.0.w.Z.i.e.v.[ [ { { { ` r./ 0.&.:.-.~ ] fXuXdXdXNXY.h.Y.U.U.U.",
"u.I.W.#.#.#.I.p.1.&.P.u.P.1.P.2.q.q.t.y./ ~ b.+.b.OXr.OXZXbX` r.e.y.0.4.0.-.k.k._ [ v.v.M.) 0.9.4.-.Z._ Y uXdXaXh.h.Y.Y.U.Y.vXU.",
"2.I.1.L.#.1.#.#.1.1.1.u.u.W.P.L.2.9.9.u.y.Z.b.#X_ ` 4.i.MXZ.e.e.0.0.9.9.9._ 8.[ { [ _ M.;.z.=.9.z.) b.{ { ] aXdXtXh.Y.Y.Y.g.Y.U."
};
