/* XPM */
static char *e22b1781d7ea4d57a0447d1ed504ec7fyEg1lsW4GgxsZll9[] = {
/* columns rows colors chars-per-pixel */
"64 64 251 2 ",
"   c #1B572C",
".  c #0A4938",
"X  c #154C34",
"o  c #1A4D35",
"O  c #1A463E",
"+  c #144C3C",
"@  c #1A4E3C",
"#  c #15423C",
"$  c #0C523B",
"%  c #0C5C3B",
"&  c #0A5538",
"*  c #1B5235",
"=  c #15543D",
"-  c #1C543C",
";  c #145B3D",
":  c #1C5B3C",
">  c #175835",
",  c #235A36",
"<  c #23553C",
"1  c #235B3C",
"2  c #2B5C3D",
"3  c #265637",
"4  c #285536",
"5  c #1A6B3C",
"6  c #17653A",
"7  c #1B743D",
"8  c #0B6438",
"9  c #23633D",
"0  c #2B643C",
"q  c #246B3C",
"w  c #2C6D39",
"e  c #34673A",
"r  c #28783C",
"t  c #377539",
"y  c #23622D",
"u  c #407C3E",
"i  c #0B3B42",
"p  c #143D4C",
"a  c #163A45",
"s  c #153E51",
"d  c #0F3C53",
"f  c #0E4443",
"g  c #0C4A48",
"h  c #134444",
"j  c #1C4543",
"k  c #154C43",
"l  c #1A4D44",
"z  c #15444B",
"x  c #154A4B",
"c  c #1B4B4C",
"v  c #1A474D",
"b  c #0E5848",
"n  c #145442",
"m  c #1C5444",
"M  c #145B44",
"N  c #1C5B43",
"B  c #15534B",
"V  c #1C534C",
"C  c #145C4B",
"Z  c #1C5B4B",
"A  c #1B4453",
"S  c #164B52",
"D  c #1B4C53",
"F  c #194858",
"G  c #1C5553",
"H  c #1C5B52",
"J  c #1D5C5B",
"K  c #195558",
"L  c #234D44",
"P  c #224B4B",
"I  c #245544",
"U  c #2A5645",
"Y  c #245C44",
"T  c #2A5B45",
"R  c #23554B",
"E  c #2A554C",
"W  c #235C4C",
"Q  c #2A5C4B",
"!  c #315E47",
"~  c #234C56",
"^  c #244B5B",
"/  c #235452",
"(  c #2B5453",
")  c #235C53",
"_  c #2B5C53",
"`  c #24545B",
"'  c #245C5B",
"]  c #2A5C5C",
"[  c #2D555B",
"{  c #31555A",
"}  c #0F6744",
"|  c #146343",
" . c #1C6445",
".. c #146B44",
"X. c #1C6B44",
"o. c #15634B",
"O. c #1B634C",
"+. c #156C4C",
"@. c #1B6B4B",
"#. c #147243",
"$. c #1B7344",
"%. c #15734A",
"&. c #1C744C",
"*. c #1D7A4C",
"=. c #1C6352",
"-. c #1C6C53",
";. c #1C635C",
":. c #1D6A5A",
">. c #166656",
",. c #1C7353",
"<. c #1D7B54",
"1. c #1D735A",
"2. c #1E7C5A",
"3. c #147557",
"4. c #236344",
"5. c #2B6344",
"6. c #236B44",
"7. c #2B6C44",
"8. c #23634B",
"9. c #2A644A",
"0. c #236B4C",
"q. c #2B6C4C",
"w. c #336C45",
"e. c #32644C",
"r. c #356C4C",
"t. c #396847",
"y. c #257444",
"u. c #2D7344",
"i. c #247B44",
"p. c #2C7A44",
"a. c #23734C",
"s. c #2A744C",
"d. c #237B4C",
"f. c #2B7C4B",
"g. c #347B44",
"h. c #32764B",
"j. c #337B4C",
"k. c #387746",
"l. c #236353",
"z. c #2A6353",
"x. c #236C54",
"c. c #2B6C53",
"v. c #25635B",
"b. c #2B655C",
"n. c #236C5B",
"m. c #2B6C5B",
"M. c #3C6B54",
"N. c #346A58",
"B. c #237454",
"V. c #2A7353",
"C. c #247C53",
"Z. c #2A7C54",
"A. c #23745C",
"S. c #2B745C",
"D. c #247C5B",
"F. c #2A7B5C",
"G. c #337353",
"H. c #347C54",
"J. c #32745C",
"K. c #317C5E",
"L. c #3B7857",
"P. c #1D5462",
"I. c #245361",
"U. c #235D62",
"Y. c #275E69",
"T. c #305C66",
"R. c #294E61",
"E. c #1D6B63",
"W. c #1C6766",
"Q. c #1C7561",
"!. c #246363",
"~. c #2A6463",
"^. c #236B63",
"/. c #2C6C62",
"(. c #28676B",
"). c #336865",
"_. c #257362",
"`. c #2C7462",
"'. c #257B63",
"]. c #2B7B63",
"[. c #2B786B",
"{. c #327B63",
"}. c #377966",
"|. c #286D79",
" X c #297375",
".X c #326D71",
"XX c #457945",
"oX c #416D53",
"OX c #457C5C",
"+X c #427565",
"@X c #497F71",
"#X c #38843B",
"$X c #48883B",
"%X c #51843C",
"&X c #1C8353",
"*X c #1D835A",
"=X c #1B814B",
"-X c #25834C",
";X c #2B824C",
":X c #278547",
">X c #3B834D",
",X c #358648",
"<X c #248254",
"1X c #2B8354",
"2X c #2C8A55",
"3X c #25835B",
"4X c #2B835B",
"5X c #258A5B",
"6X c #2C8A5B",
"7X c #258856",
"8X c #338354",
"9X c #338B54",
"0X c #34835C",
"qX c #338C5B",
"wX c #3C8854",
"eX c #2B905F",
"rX c #389658",
"tX c #3A924D",
"yX c #258362",
"uX c #2C8362",
"iX c #2B8B63",
"pX c #2A8869",
"aX c #348C61",
"sX c #338C6C",
"dX c #378566",
"fX c #2D956B",
"gX c #349266",
"hX c #37956A",
"jX c #3A8C74",
"kX c #379A72",
"lX c #3CA37C",
"zX c #41834A",
"xX c #478446",
"cX c #548846",
"vX c #448853",
"bX c #5A8952",
"nX c #478A63",
"mX c #428872",
"MX c #439978",
"NX c #4F956D",
"BX c #48A677",
"VX c #56AC77",
"CX c #6DB370",
"ZX c #608C7B",
"AX c #59B98A",
"SX c #4EA382",
"DX c #65A587",
"FX c #67B988",
"GX c #72B292",
"HX c #68A697",
"JX c #5EC097",
/* pixels */
"U.P.F F a a a a R.R.U.n.n.A.A.:.J C W.G G ~.R W ) Q 8.N Q T Y T T R ] ~ ~ E 9.5.5.7.1 9 : 9 : N : 1 1 e w t w y 0 7.z.N.b.) J ;.",
"P.F I.` ( a a A T.F (.`.].@.+.A.b >.C ^.l.m W ) z.Q W Y q.8.Y Q Q ( / / R _ Q < * 4.4.9 9 : q.N c.Y q.w w     k.2 0 Y I l.b.v.H ",
"D S D ^ { ~ ~ v F ` B A.F.SX1.3.'.C -.l.n m.N.8.8.8. . .c.N Y Q 9.I / ] / B Z Z W  .4.9 q.4.q.q.q.: : q.> Q 5.- Y Y Y 8.4.8.O.N ",
"x c A P a P P E D G x.].Z...,.1.-.@.,.C.B.@.@.V.B.B.B.V.c. .4.9.5.W ) B H S.m.Z l.O.8. . .6.q.0.0.x.M m W m R Q 5.> q.r.6.Y G.8.",
"+XN.j L O L # @ Z  .a.y.9XVX$.&.*.a.&.y.&.C.$.d.C.C.C.B.@. .8.8.8.W ) =.o.jX].B.O.-.8.;  .0.V.x.+.,.-.H H B m m T NXu.q 7.nXc.G.",
"! _ U E U 2 I 5.: 6.p.:Xi.:XC.$.a.y.1XMXd.<X3X<X<X3X,.&. .8.l.8.) ) `.].A.uXD.uXx.x.N : 6.; `.F.5XsX'.E.g ) l m nXh.g.g.nXs.G.c.",
"Q Q U < U < - o q.j.y.r r 7 C.B.1X1XaXd.C.BX*X3X5X3XC.B.@.V.z.8.) l.`._.3X2.3X1.B. . .9.9 X.x.uX6X*X1.-.$ b }.G.w.u.>Xp.wXs.V.n.",
"! T U L U O - 4.s.s.i.,Xi.y.@.; G.Z.4X..1X7X&X3XD.2.D.A.O.n.8.) V H =.].yX<.3X<.A.@.4.h.k.VXx.X.C.AX5XuXsXsX}.: j.j.wXtXhX1XD.F.",
"e.< I @ @ I > 4.X.H.y.,Xp.6.O.$ c. .B.A.4XD.yX3XpX2.1.S.=.Z W _ V Z S.`.1.C.<.1.jXn.6.7.u.u.j.y.#.*X*XfX3.+.].0.H.H.nX2X2XkXiX%.",
"+Xz.- - - - 9.q.6.0.H.f.j.H.W n n = n.S.uX'.'.1.'.-.n.`.b.Z l l W V }.+.D.<.2.+.:.C c.h.k.u.u.f.<.*X*XpX3.yXB.@.q.H.0XqX7XAXiXiX",
"L.OXo X - 1 9.q.s.0.f.u.7.h.m k x x !.`.[.[.[.1.:.:.`.v.l.' V k V c H `.K.C.F.-.n.x.}.5.7.j.j.H.'.'.yX3.3.yXo.@. .q.a.% sXkXlXfX",
"T L.r.< - 1 > 9.8.0.G.s.NXY @XV G B !..X X^.E._.:.J ) v.v.R / R h h v.=.{.F.F.0.b.Z m.J.L.h.9 0.-.[.yXQ.pX3.B.0.= : 0.& yXfXfX*X",
"M.: T Y Y 5.9.8.l.b N N N m k z c S P.(.(.W.;.W.J v.~.' ' / b.i z z D ' `.$ V.c.l.n.' C z.G.q.8.=.^.Q.Q.3.3.o.x.N > ; x.} sXsX'.",
"M.Y Y < 3 , e.c.m B M 8.N + # h F K !.(.^.!.W.^.g g h ' [ G ' D f F z x + 8.8.8.H ' K J b.b.8.V.=.n.:.1.1.:.=.W + N n  .x.B.F.0.",
"e.t.2 2 2 , 1 - Z M M = = X + c U.Y.(.!.J P.W.!.' U.' ' ' ' G G z c f D V W _ v.G U.P.K ' b.c.+Xq.a.,.+.A.:.B V R m N $ 0.s.N G.",
"5.3 3 0 3 2 5.9.= Z n N : : I W _ ' !.;.b g g J ~.~.U.' ' ' f G f x ' G ' B C ) W.P.Y.(.P.l.b.DXVXDX6.-.-.:.' _ V m N 0.8.8.< - ",
"3 3 ! o oXe.Q I X = > : * , e 4 2 ! @ + . k Z v.!.(.~.~.' H H . C . Z v.O.>.}.=.;.J (.(.U.G Q c.GXOX4.l.`.;.J H N 8.8.4.5.4.Y m ",
"< < o o O o - - G.V.> 5.w.w.e e e 4 X - Z m O./.~.U.K ' v.H l.M M M C -.x.n.-.A.:.W.(.(.U.~.}.z.L +Xm.H v.W.;.:.=.c.6. .8.9.N . ",
"Y Y * o 1 < > V.x.6.q.6   t.XXy e   ! 8.DX`.}.l.(.v.G ' v.) 8.l.0.M x.x.-.A.uXB.].n.^..XU.G T.G N.).H b.^.W.!.>.v.v.Z Z m m Z W ",
"I * - : 4.6 X.6. .@.; N ,   e e e 2 m W `.`.l.=.H B G H l.l.8.x.x.-.n.D.o.4XC.&.B.A.`..XJ D I.~ [ / G ~.H H ^.E.^.!.G B V ) Q W ",
"l Y o < > 4.s.> 6 @.x.6.* k.e e w.9 Q 8.v.b.n.l.C H ;.=.l.c.@.V.V.@.Z.-.,.+.&X%.C.F.{.v.K I.F p ^ G B B /._.n.^.^.;.K H ) B m - ",
"- < m * T 7.> ; ; M  .0.> 5.t.0 w.Y 8.b.l.m.n.x.v.:.l.=.B.Z.B.s.1Xs...B.&.%.*.*.#...n.B G z s ^ ~ D f k m.C b :.;.;.J v.H m m < ",
"o < I - I - = N  .@.F.a.V.s.6.G.7.9.J./.l.=.O.8.O.o.@.@.&.Z.1X1X9X9X$.$.6X$.$.d.X.X.x.H c c z ~ v z k l.n.B.A.n.E.^.;.g m 9.e.o ",
"X ZX@ I I - c.V.0.0.C.4X$.d.&.6.7.q.z.Z H n.O.O.O.>.-.B.a.C.4X2X2XrX:XqXi.5 p.5 X.O.M b.V ` ~ / c k + c.0.x.uXA.'.:.C H m + 3 o ",
"X 9.q.Q c.N 0.x.&.C.d.<.<Xd.d.*.s. .n.n.C >.| @.o.B.B.B.C.1XZ.qX-XrX:X:X9X;Xr 5 7.h.z.z.) V B R R c Z m.O.o.A.1.1.:.{.C = o o < ",
"X c.= q.q.6 X.&.C.7X<X7X<Xf.d.5 X.0.O.n.C C S.,.} &.B.&.<Xf.8Xi.-X-X2X7 #X,X#Xt zXw.N._ ).}.Z W m mXN x.x.+.D.&.,.sX@.n.= o M.< ",
"< 1 L.j.y.s.*.*.eXeX-X<X:Xr >Xt q 6.8.S.].o.B.D.<.3X%.<.2Xd.d.<X-X&X*.,X#XCX,XxXk.w.! J.N.B Z Z O.: GX,.B.+.1.C.&.C.$.s.> L.o < ",
"* , GX6 > f.;X-X2XiX2X9XwX#XxXXXNX4.m.l.n.`.-.uXD.fXgX5X=X*.*.6X5X<XqX;XtXxXCX$XxXk.M.c.) W ) O. .Z.V.0X&.F.*.*.*.;X$.>Xj.w.1 3 ",
"1 * , w.H.FXf.-X*.-Xd.;XvX$Xu XXt OX9.Z Z `.uX6XiX*XkXfXeX7X<.8 3X<XC.8X;X>XxXt t w L.N 8.O.O. .y.f.f.d.aXZ.*.-XVX:XFX9Xf.  , 4 ",
"4 3 1 1 6 L.@.1X<.*.$.y.vXzXcXcXe 9 8.M M b +.3X*X*X&X5X&X&XgX6X6Xd.6 Z.5 ,XvX#Xe zXq nX8.x.x.s...1X8 1Xd.<X2X7 =X7 7 p.6 w.0 , ",
"t.o 2 T <  .0.F.<X%.f.f.>X,Xu t t u.c.Z {.dXD.2.*XkX&X&X&XeX*...8 Z.0XB.6 nX>XwXj.wXG.6  .0.V.B.C.<Xd.$.*.1X<X2X7 =X1Xs.y.9 , , ",
"2 U < U Y W S.S.K.X.0Xf.u.g.zXt u.7.4.x.o.A.} yX3X*X*X3.&X5XC.#.6 s.aX0Xs.p.j.>XvXu.vX6.X.s.X.F.3X<...,.C.<.$.1X<Xa.d.y.7.1 1 5.",
"T T U R I R W W z.9.N 1 G.k.vX7.6.0.0.x. .].o.M C O.S.dX| V.&.1.<.C.4XZ.f.j.vXzXzXk.zXq 8X5 a.1X6XC...a.a.F.F.& B.6.8.q.0.4.4.Y ",
"E U R Q E E P ( E R Y 9.5.4.w q 5 6.@. .= n k Z m n = m.M B.x. .B.x.0X1Xf.f.t vXzX>Xg.wX$.5 C.C.C.&.% F.dXM N 8.c.0.6.8.4.Y Y 5.",
"_ R E E ( j j P j R Q Q Y 5.: 6.q.0.@.8.M $ n m V n @ I - 8.5.= c.F.a.B.qXFX,XwX>Xg.,X9X:X*.a.C.F.a.@.0.$ = m.Q 8.8.9.8.Y Q 9.Q ",
"_ _ _ P L O j j # L m m I 4.4.8.4. . . . .N - n + + m + - - - - x.N | Z.8X8XVX8X,X9X-X*.AX<X*...&.x.0.n.l.9.+ z.I I Y 9.Q Q Q I ",
"E ] E E # j # j # m l l Z 8.O. . . .4.8.4.8.m N Y W n @ m + I }.= = % B.4X1XZ.;Xd.d.$.2X%.C.+.F.8.Z b.l.W z.z.9.z.Q Q W W E E E ",
"_ / ( / P # O O O l . Z l.x.=. .x. . .@. .x.M 0.0.DXm }.N - - = ; S.B.&.C.7XC.<X#.C.*.%.*.,.C.V.Z C z.) b.Z m.l.m.9.W _ R ( ( { ",
"T.' )./ ( l R + # + n l.m.`.-.+.@. . .;  .B. .| Z.S.F.& M x.l.l.M F.D.iX3X5X3X6 &.&.4X} ..%.@.n.H b.) H b.H n.l.n.W Z W R E { ( ",
"' ' ] ] l ) W = + = J.x.`.].'.A.,.C.C.+.D.D.4X+.D.B.,.x.x.n.m.O.M Z.4X2.D.iX%.} &.@.&.,.B.F.0.V.) ) G H ) m.x.l.l.x.l.H R ( [ { ",
"T.J ' b.V l.N = . &  .C.B.uX,.3.<.2.<.<.,.3X3.<.yXD.D.`.A.n.n M | ,.F.3X4X+.C.S.0.F.-.F.@.C.S.n./.~.) Z ~.l.= n.x.O.l.) V / ] ] ",
"K J K v.H Z 8.; 0.dXX.a.uXD.pX+.*X*X*X<.<.3X<.<X3XD.,.+.-.c.Z N 8.a.B.&.D...8.O.c. .0.V.&.F.MXm./.v.J H V m + l.Z Y Z Q ) b.] ] ",
"~.K ;.=.Z @.@.X.FX4XgX2X&.<X5X<.yX2.<.3.,.,.1.3XD.D.-.+.n.m.z.m :  .8. .x.= N m + = S.S.-.,.B.-.=.l.b.) k m - o q.- c.m ) H ' v.",
"v.G C l.x.@.| *.qXhXqXhX*.<.3XD.2.,.1...} | +.,.,.1.,.+.B.n.x.m - N 8.Z 8.= m I + m $ M uX-.A.A.A.v.l.m.m + @ Q M.N q.z.c.l.) Z ",
";.v.O. .-.D.@.6XiXBXgXgX#.%.&.4XF.D.B.| M M -.o.-.1.1.-.B.>.l.8.m @ + m m N + + + m N S.x.1.@.A.=.n.N m.= 8.> q.L.s.q.c.}.S.l.l.",
"=.Z O.mXB.$.MX6XVX2X<XkX<.&.3XD.F.B.O.M M  .-.o.-.1.A.1.A. .l.8.T R @ n m ) R m W z.W n.=.M S.b M c.J.0.J.c.V. .6 0XdXs.K.> Z S.",
"8.dXS.| a.<XgX6XAXeX%.%.,.,.B.1.D.%.} o.O.-.B.-.-.-.A.x.x.O.Z 8.R R m m Z l.R W R _ W H =.m.b.l.= c.8.V.0.C.&.d.C.gX7X<X0XdX4.8.",
"}.J.{.Z.jXC.*.<XgXiX*.&.3X<.,.C.D.1.@.C.@. .-.A.A.1.1.-.x.x.8.9.W R _ Z Q l.) Q ) _ W Z C ) O.Z  .0.V.Z.B.4XgXeX3X&X<X5 X.@.8.x.",
"`.S.B.V.&.1.2.iXC.sXuXuX2.%.,.*.$.d.X.5 ;X$.*.<.3.Q.:.n.n 8.8.k l m Q Y c.Q _ I R c ) m =.n.C >.dX..dXZ.V.Z.y.d.2X2X7 rX#.+.`.n.",
"`.{.F.C.+.,.1.1.,.+.F.-.-.+.%.*.8 5 y.5 r AX<.2.2.1.A.Z Z Z m m V m Y Y Y Q + V c _ ' l.jXo.Q.sXsXuX$.nXh.u.vXs.d.6X:X2X2XF._._.",
"x.Z.B.a.B.6X3X1.A.O.B.A.-.+.a.6 8 5 f.d.*.4X3.'.+.,.:.M W Z l l V m W Y Y 8.. W n . Z O.{.jXpXfXSXC.,X>XzXk.s.X.F.@.1Xd.C.F.A._.",
"V.B.C.C.C.7X1XF.'.>.n.o.V.-.aX$.5 6 qXd.4X<.uXuX_.-.x.n./.k / P G R n 8.8.: O.Z }.}.x.B.D.5XiXkX:.0.r t xXzXq a.B.iX4X1XF.@.'.'.",
"d.C.<X4X-X<X2XaX-.>.:.x.0.dXy...6 y.i.d.4X4X[.A.n.A.$ n.g x h c z.n m.8. . .M n.dX`.uX%.%.*XfXlX3.-.> w.vXXXh.s.+.1.D.A.a.Z.D.D.",
"<X3X3X<X1X2X2XC._._.n.o.x.Z.0.X.f.5 i.:X8 @.-.v.l.m.l.g x c j c m Z  .6.6 % C.F.sX1.3X3X&X*XlXiX'.O.= w.t.vXu.X.,.-.S.jXF.Z.C.1.",
"5XiX3X<.7X2X1X@.:.[.>.n.x.B.a.X.Z.y.r ,X,X6.+Xl.R B V g S x h m = 8. .6.5 $.C.iX4X3X#.3XyX*XpXsX+.; Z m t.0 h.p.;X9XS.:.n.C.a.BX",
":.1.3X<.C.<X6XD.1._.E.n.-.@. .5 6.u.#X#XCX>X9.W k # z c i i x @ : X.s.5 f.4Xd.aXiX&X*X5X5XiXpX2.C. .W m 8.G.s.,XtXVXaXn.A._.B.&.",
":._.`.D.% F.D.`.A.v.=.E.C x.@.6.8.q $X$X$XCX2 Q / l # A i x k Q 8. .8X8XFX$.<X<X7XC.2X7XaXD.,.@.@.6.0.c.> 6.y.r tX,XhXF.dX^.:._.",
"W.[.b `.M =.b.b.v.n.J =.C H  .x.9.k.cX$XcXcXt.+X_ [ P j v c _ ) O.0.: Z.1Xf.$.6X<X2X*.6XV.Z.x.x.0.q.@.4.6.p.y.r #XtXF.F._.[.W.W.",
"P.K ~.' ~.V z G ' HXJ g S ) 8.9.5.e u %X%XbX2 ! e.N.L L R c G H l.O.0.V.H.K.$.d.i.$.p.p.j.s.G.N l.l./.O.Z.y.q rX*.1X&.3._.W.|.|.",
"P.g x v D z a A h x D ` G ' m ) ! OXu XXcXXX! M.oXZXM.U E _ V l.) Z 8.8. .s.6  .y.6 f.y.j.L.9.I ) H B Z ; wXqX9X7X<XyX'. XW.|.|.",
"P.F i d s s ^ a z D D D D G / R Q r.OXXXXXoXoXoXE U oXM._ R _ ) z.) W 8.N 6.4.6.y.6 t w w.t.! L ` ` ) Z J.a.qX2X7X3XpX'.W.|. XW.",
"Y.P..Xs F s R.s A [ ` ` c D ~ ` m < T 3 ! oX4 t.oXoXM.U I ( R / / / l.I 9.: 5.4.5 q q u.0 ! U U c R R m N qX2X-X7XJXQ.:.W.W.W.W.",
"P.Y.Y.F d s R.^ F F ' ` ` ` I.` W W W l.R I ! oXoXt.U N.Q z.R _ _ _ T I Y < 1 6.9 9 w 7.w.3 E E L < t.1 9 j.#XrX*.&X<.1.E. XE.E.",
"P.Y.P.F d F s z F ^ ^ ` ` .XI.I./ W / / _ N.oXoX4 ! I Q Q R Q E R Q E < < 1 1 4.0 q : w.2 Q j E ! 2 t.5.q 7 rX=X&X<.3.1.:.W.Q.W."
};
