/* XPM */
static char *c658b1e4e9a74aaabfa822d9f26c541e1pNEATK2P9dMl2sS[] = {
/* columns rows colors chars-per-pixel */
"64 64 256 2 ",
"   c #080703",
".  c #020C1A",
"X  c #0A0517",
"o  c #140A1B",
"O  c #04171A",
"+  c #171817",
"@  c #16140B",
"#  c #21171C",
"$  c #251410",
"%  c #05241A",
"&  c #15251A",
"*  c #322B1B",
"=  c #080826",
"-  c #180926",
";  c #061825",
":  c #171725",
">  c #190835",
",  c #0B1635",
"<  c #181639",
"1  c #0B0B36",
"2  c #24092C",
"3  c #24162D",
"4  c #260938",
"5  c #261539",
"6  c #310C3B",
"7  c #032325",
"8  c #082628",
"9  c #172728",
"0  c #0C2834",
"q  c #172838",
"w  c #173838",
"e  c #123532",
"r  c #352B26",
"t  c #393327",
"y  c #282837",
"u  c #253938",
"i  c #3A3436",
"p  c #29322A",
"a  c #473315",
"s  c #473929",
"d  c #4C3D37",
"f  c #1B4B3C",
"g  c #16483A",
"h  c #1C5436",
"j  c #1B543B",
"k  c #1C5A3C",
"l  c #16573A",
"z  c #105034",
"x  c #234838",
"c  c #23553C",
"v  c #245A3C",
"b  c #265839",
"n  c #2F4F3B",
"m  c #1A653C",
"M  c #156737",
"N  c #26663B",
"B  c #25773D",
"V  c #346D3C",
"C  c #514432",
"Z  c #40703C",
"A  c #1B0942",
"S  c #141941",
"D  c #290B46",
"F  c #340947",
"G  c #291547",
"H  c #36164A",
"J  c #2C0B53",
"K  c #390A5A",
"L  c #2D1451",
"P  c #3B1554",
"I  c #3A1B53",
"U  c #3C135A",
"Y  c #361755",
"T  c #1A2946",
"R  c #173B48",
"E  c #133C4E",
"W  c #282548",
"Q  c #263746",
"!  c #342C51",
"~  c #3D0C68",
"^  c #3E1365",
"/  c #3E0E71",
"(  c #42145D",
")  c #441859",
"_  c #410D5D",
"`  c #430D65",
"'  c #430D6B",
"]  c #490D66",
"[  c #431264",
"{  c #44116B",
"}  c #471564",
"|  c #430E71",
" . c #441275",
".. c #413E47",
"X. c #0E4647",
"o. c #134443",
"O. c #164C43",
"+. c #1C4C43",
"@. c #19494A",
"#. c #145443",
"$. c #1A5546",
"%. c #1C5C44",
"&. c #1C554A",
"*. c #1C5B4B",
"=. c #15594A",
"-. c #1A4954",
";. c #1C5B52",
":. c #1B5757",
">. c #0B5848",
",. c #284C4A",
"<. c #354848",
"1. c #235544",
"2. c #235C43",
"3. c #2A5C44",
"4. c #24544B",
"5. c #235C4C",
"6. c #2B5C4B",
"7. c #2A564B",
"8. c #355A4A",
"9. c #254C55",
"0. c #245451",
"q. c #2B5654",
"w. c #245C53",
"e. c #2B5B53",
"r. c #245C5A",
"t. c #2C5C5B",
"y. c #25545C",
"u. c #355B5B",
"i. c #365656",
"p. c #374D56",
"a. c #156444",
"s. c #1C6443",
"d. c #1C6A45",
"f. c #1C644C",
"g. c #1C6B4C",
"h. c #166849",
"j. c #1C734C",
"k. c #1D794D",
"l. c #1A7348",
"z. c #1C6353",
"x. c #1D6B53",
"c. c #1A6759",
"v. c #1E7354",
"b. c #1D7A53",
"n. c #1E755B",
"m. c #0F6548",
"M. c #236344",
"N. c #2A6444",
"B. c #226C45",
"V. c #23634C",
"C. c #2A644C",
"Z. c #236B4C",
"A. c #2B6B4C",
"S. c #2B6C44",
"D. c #366749",
"F. c #257443",
"G. c #23734C",
"H. c #2C744C",
"J. c #237B4D",
"K. c #2B7948",
"L. c #33744D",
"P. c #327B4C",
"I. c #3A734A",
"U. c #246353",
"Y. c #2B6454",
"T. c #236B54",
"R. c #2C6D53",
"E. c #24645C",
"W. c #2B645B",
"Q. c #246C5B",
"!. c #2B6B5C",
"~. c #356859",
"^. c #237354",
"/. c #2A7454",
"(. c #247B54",
"). c #2A7B53",
"_. c #23745B",
"`. c #2B745B",
"'. c #247B5A",
"]. c #2B7C5C",
"[. c #337453",
"{. c #367859",
"}. c #1C5B61",
"|. c #265864",
" X c #3A5B64",
".X c #284963",
"XX c #1C6863",
"oX c #1D7562",
"OX c #296865",
"+X c #386966",
"@X c #2A7462",
"#X c #2B7B62",
"$X c #277766",
"%X c #367866",
"&X c #2E6873",
"*X c #46444A",
"=X c #485659",
"-X c #535150",
";X c #625B59",
":X c #64574F",
">X c #456858",
",X c #457658",
"<X c #4B774E",
"1X c #475A64",
"2X c #585A64",
"3X c #464C69",
"4X c #625A63",
"5X c #456967",
"6X c #467866",
"7X c #5C7473",
"8X c #516F72",
"9X c #6A6A6A",
"0X c #686559",
"qX c #30843F",
"wX c #2B834C",
"eX c #368448",
"rX c #258254",
"tX c #2A8354",
"yX c #25835B",
"uX c #2C845C",
"iX c #2C8A59",
"pX c #32835A",
"aX c #348A5B",
"sX c #388756",
"dX c #39925C",
"fX c #2C8361",
"gX c #298664",
"hX c #348966",
"jX c #399467",
"kX c #389675",
"lX c #338F70",
"zX c #1F8152",
"xX c #4B8A55",
"cX c #478767",
"vX c #4D9373",
"bX c #50A874",
"nX c #67857D",
"mX c #8C867A",
"MX c #606C8A",
"NX c #847F88",
"BX c #6A8A93",
"VX c #54B28C",
"CX c #63A18A",
"ZX c #8C8F92",
"AX c #98A5A5",
"SX c #A9AEAF",
"DX c #A49BAC",
"FX c #C2BEBF",
"GX c #BBC2BB",
"HX c #BBC6C6",
"JX c #D4D2DB",
"KX c #CCCCD0",
"LX c #FEFDFE",
"PX c #F9F7FA",
"IX c #EAECEF",
"UX c #DCDAE4",
/* pixels */
"|.}.-.-.R R R R .X|.r.OXQ.^.n.c.m.c.XX=.:.W.4.5.*.f.Z.%.2.3.2.2.b 7.e.0.9.,.p.i.i.N.N M M h N.c 2.b v b N V V V h V D.Y.Y.OXw.w.",
"}.-.|..Xy.R R E |.-.OXOX%Xx.x._.c.>.:.c.w.;.&.V.V.V.%.%.V.V.3.3.3.7.&.4.q.q.e.e.+.3.M.m M N k Y.M.R.N S.V N b h V b N.C.%.*.!.E.",
"-.X.-.9.y.9.9.@.-.y.=.@Xn.bX#Xv.v.x.x.g.=.U.R.U.U.V.f.V.Y.N.2.3.3.6.4.w.=.#.%.*.*.V.%.l N S.M.R.V.U.%.k A.h 3.N N N v k 2.R.V.%.",
"@.,.+.@.w ,.,.4.-.&.f./.v.h.j.b.v.g.a././.T.Z.Q.`.T.`.R.R.V.2.C.C.Y.5.*.;.x./.x.f.z.d.d.N B.A.Z.!.T.f.=.%.s.j %.b v v S.A.S.k [.",
"6X~.+.,.g ,.g f $.%.G.P.tXbX(.l.l.F.l.G.G.Z.v././.].]./.Z.d.s.V.V.Y.;.;.f.`.fX/.x.g.Z.f.%.d.T.`.^.h.x.z.;.=.#.$.2.N.cXS.S.F.cXF.",
"6.e.7.7.7.7.1.C.$.B.K.K.wXwX(.l.J.l.).jXiXuX(.b.yX'.'.j.d.d.B.V.5.w.OX&X@X@X#X#XfXx.g.l k M.%.{._.fXkXn.x.>.z.z v cX,XI.L.xXF.K.",
"8.8.7.x 3.c h z S.P.B B B m ].(.).).aXtX(.jXjXzXyXrXrX(.g.Z.Z.V.Y.w. X9.0 7 g %XT.Z.Z.M.M.M.Z.G.aXrX(.n.m.z =.%X/.L.H.sXP.sXF.J.",
"3.3.7.h 3.g j M.G.H.B eXwXF.d.a.^.).uX^.k.iXzXyXrXzX'._.Q.U.Y.Y.+.7 0 , , 0 e #.@XT.s.A.[.sXvXB.l.iXbXgXfXlX#X%Xm L.P.sXxXjX).tX",
"8.c 1.f f k j B.M.P.K.K.P.F.M.#.U.f._.^.yXyXyXgXfX].{.OXW.y.y.p.q = = 1 G T S g $X%XT.A.H.S.P.P.k.l.yXgXhX^.x.].B.P.sXdXpXpXjXyX",
",XC.c c j j N.M.B.Z.P.K.eX[.V.#.=.#.f.x.gX$X_.$X%Xw.R 8 ; ; 1 , , > A G ! ! R X.|.T.f.A.L.H.K.B J.(.yXgX$X'.'.].d.[.H.sXaXuXVXlX",
"{.6Xj z j %.V.R././.H.L.S.L.5.@.o.=.Q.OX$XgX%X:.9.Q T < G G A 1 G Y U Y ! W R W.E.Q.Q.R.R.L.tXK.).'.#XoXn.oXv.h.g.a.).G.M kXkXkX",
"6.,X~.1.j c l A.M.V.[.[.cX~.%Xw.0.-.:.OX&XOX&XR , < G Y Y L L J J } ^ ^ G < ,.{.Q.x.!.!.R.[.L.B./._.gX$X$XgX$Xx.d.l d.d.M gXlXkX",
"~.v D.2.v N.N.N.U.*.2.%.A.z w.@.X.:.:.&X&XE T W G H I H F 4 D H Y K J D > S p.~.Q.z.XXc.w.!.R.M.x.z.Q.$Xn.oXx.x.T.l #.s.x.m.kXhX",
"~.b 3.b h b A.Y.%.#.l f.k j g X.-.:.y. X XR S W ! H 6 4 2 - - 4 D Y K J < G ,.t.U.z.c.:.;.W.!.R.Q.z.x.x._.n.c.f.z.O.*.$.=.g.uX'.",
"D.D.n b b N N c 5.#.$.j j z g X.=.:. X X! L I I I 4 - = o : o o 4 G I Y D A R  Xr.:.:.:.:.W.Y.~.{././.g.j.v.x.=.#.*.#.$.l R./.a.",
"3.b b D.b v 2.C.#.*.l $.%.j %.=.z.y. XR W G I I 5 - - - # # $ @ - 2 G Y Y G , R +X}.}.}.r.t.e.%XCXvXvXd.g.x.x.f.;.&.$.*.*.V.d.k ",
"v c b b D.S.M.k j $.l l h b 3.v 2.6.i.: G H I 5 > - : # # # # + 2 o - G Y L 1 T &XOXXX+XOXq.q.W.6XCX7XV.T._.z.z.*.&.U.V.M.M.V.%.",
"h 2.x g h h k k N.V.s.k D.D.N V N.8.<.; 5 ! H > : : : 3 # & 9 & + : 2 < L L A T MX+X+X&X5X X~.%XW.%X5XC.*._.c.E.r.E.U.V.V.V.C.%.",
"2.1.c g j k l Z.[.N.V.m b V D.n D.e + o 5 4 - : : 9 % + & : : : : : - - > G > - 8 8 7 8 ; : 8 9 8 e 5X~.E.c.:.XX:.E.E.z.#.*.*.*.",
"1.1.c c 3.2.k A.%.A.m s.b b D.Z =X8.Q : : 3 - - : u <.p 9 9 8 Q u 9 : o - > - 5 =X>X2X1X2X2X2X=X5X1X5Xu.+X:.XXOXOXOXE.=.=.&.*.w.",
"f 8.f c v N [.%.d.d.g.%.b V z 8 + DXZX3 5 2 X : ; p.BXi.8 7 8 ~. X8 ; O X > - -XKXJXJXJXJXJXJXKXJXSXq 1X~.OXXXOXOXOXz.:.;.5.$.$.",
"f c c h k M.d.z z %.f.Z.7.e ZXAXDXIXDXy 3 2 X - q  XBXu.0 7 8 5X8X8 8 X X - 2 ;XPXPXPXPXPXLXLXLXLXHXO 1Xq.OXz.z.XXc.z.=.;.*.$.$.",
"h c v h h m z M d.a.U.{.~.<.GXPXUXJXNX3 3 : X o : ,.7Xp.8 7 8 i.i.q O X X - 2 *XFXKXJXKXIXPXIXGXJXSX9 u.t.!.z.x.x.Q.Q.c.*.%.2.3.",
"f ,Xj h N l d.d.s.g.`.{.e AXIXPXZX8X*X: 3 - X o 9 q u 9 9 : ; y q 8 O o - - - 6 :X9X9X9XSXPXKX;XZXKX+ 1XW.OX@X$X_._.c.=.=.#.c 2.",
"g 6XV.j Z.m B.G.g.^.{.~.% HXAXNX;X2Xp - 5 5 5 - : + @ O + - : - + o o 2 6 G > 3 -X*X-X;X9XmX0Xr *X9XO +XOXc.v.#Xn.$XQ.x.=.#.f g ",
"g Y.C.V.[.k d.g.(.{.6X~.8.SX;XC :X-Xi : 5 W H 3 : o @ @   o o o - X - 6 I G > y 4X9X;X:XC d s a t y w  XOXc.m.n.v.v.#X@XU.l j D.",
"j 3.A.[.V.G.G.j.uX%Xg 8.7X9X-X:X;X0X<.> G I U H > = X X X X X - o - 2 H Y G 1 5 4X2X4X;X:Xd a a r # >XvX^.v.h.zXb.j.].d.H.l M.v ",
"k v vXA.N )./.).fXcX% x =X=X2X;XC p ! *XG L ) P F 4 5 3 3 4 4 G 4 4 4 F D D W 3Xy Q 2X4X0X:Xa a * & ~.vX].j.(.k.k.'.).G.).H.D.b ",
"h h xXN.D.cXpXtX].%X% O u 2X=X=X9 7 p.8X! L L P I I I I I ) U Y L D 4 6 - > 3XMX: R =X=XC C a a * @ P.K.rXiXJ.k.rXdXwXvXsXP.N h ",
"v h h S.S.vX(.].yXR.% 9 -X>Xp 9 ,.7.i. X8XG > H I I I P U ) ) U L L G 6 > ! MXBX+X<.8 9 & * a s t & {.B K.iXJ.rXwXiXwXcXP.m N N ",
"N.b b 3.N B.d.(.'.R.O & =Xn u e D.D.~.5Xp.W G 6 H H H P P ) [ U G L F 4 A L MXBX7X5Xx x x * $ C * & ,Xm wXk.iXrXk.l.K.B K.B N N ",
"N.b c c c Z.T.].{.!.% 9 8.& >X<XI.~.~.8XW < H ) ) H F ) U ) U U Y L Y J J J ! BXnX6X6X,X<XC $ s r % [.J.l.(.'.J.iXk.J.J.F.F.l N ",
"6.3.1.2.2.4.Y.W.!.W.f x x h ,XI.L.A.~.<.W I _ ) ( U U ( ( ( ( U U U U K K J ! 3XnX6X{.{.=Xt * s t & [.d.k.k.J.G.d./.Z.B.J.Z.m v ",
"2.3.2.1.4.4.4.4.e.Y.1.3.z M.I.S.M.~.i.< 4 I ) ( [ [ [ [ ( ( ` ` K K [ ' ~ K D W <.i.6X6Xn $ s $ + % [.a.(.'.Z.B.s./.Z.Z.A.s.2.N.",
"7.3.1.7.q.4.,.,.4.4.5.C.c A.M.N.V.+Xp.< G ( ( ( [ [ { [ ] ] ' ~ { ^ ' ~ ' ^ J 4 . e 6X8Xn @ s     e Y.h.^.Z.l V.2.C.C.V.M.%.V.C.",
"7.6.4.7.4.+.g @.+.+.4.5.5.2.2.V.W.6X1X< H ) ] _ { { { { ] ' ' ~ { { ' ' ' / ^ A = T vX6X*X+ r   O 8.~.T.T.%.j 6.C.2.2.6.V.5.C.3.",
"6.q.7.4.,.w g ,.g @.&.+.$.V.U.*.W.0.! 5 6 _ ] _ { ] { ' ' | | | ~ ~ ` ` ~ ~ ^ D > q u.8X..$ r   & 5XU.T.U.Y.C.2.Y.6.2.C.V.5.6.4.",
"q.q.q.4.@.g g o.w =.g $.*.U.U.5.W.8 , G ) ) _ _ ^ [ ] ' ' ' ' | | ~ ~ ~ ~ ^ ^ L > - q 5X*X# i   & +X*.E.U.w.Y.w.Y.U.6.e.w.4.q.7.",
"t.q.t.q.,.o.+.g g O.g U.U.Q.z.U.+X7 O 4 ) ) ( F _ } ] ] ] ' | / | | K _ ` U P D 3 + 9 7X..o i   8 5Xw.E.w.U.w.!.Q.Q.U.e.5.4.q.q.",
"|.t.t.e.&.&.4.O.g j *.z.Q.#X@Xc.+X7 . 3 6 6 _ F _ } ] ] ] ' { ~ ' | K K ( P 6 2 2 o 9 7X-X# r   8 ~.y.=.*.OX;.Q.x.U.U.;.*.4.q.q.",
"r.|.r.t.O.Y.$.j z l f._./.].]./.6X7 O - 2 4 6 F _ ( ] ] ] ] ~ ~ ~ ' _ K _ F 2 2 # o 9 7X*X3 r   & +Xr.r.;.E.E.*.T.T.U.5.w.4.0.u.",
"r.E.:.E.w.*.*.#.z s.g.g.].gX'.T.%X7 . : 2 6 4 4 P ( ( ] ] ` ~ ' ' ` K K J D 2 : # @ 9 7X<.+ *   & 7XOX&.;.W.*.*.U.*.*.U.5.w.r.q.",
"|.:.=.E.*.*.Z.m hX{.'.rXrXb.gXj.hX+.0 : X 2 4 F U [ { { ] ' ' ' ` ` _ K J 4 - - o O u 8X<.@ s @ 9 q.OXw.;.&.f #.V.V.2.V.&.*.W.t.",
"E.:.;.z.f.g.s.g.bXjXaXdX(.k.gX'.`.%X X0 = > 4 D U [ } { ' ' ' ' ` ` _ _ U G 1 . O 9 u.+X<.& C s p 8 ~.W.w.g $.f %.V.2.C.*.U.e.w.",
"z.c.;.f.x.Z.a.(.gXjXjXjXb.b.yX'.$X%X+Xw Q 5 > D I ^ ^ ^ ' ' ' ' ` ` [ U P D < q 0 w q.0.,.p * s r & ~.5.Y.#.$.j C.[.M.A.Z.`.Y.w.",
";.z.=.@Xv.v.].iXjXjXjXjXk.j.b.'.].'.@X+XMXQ = G ^ } ^ ^ ~ ' ' ' ' ' ^ U D > T +Xy.,.0.t.i.n $ d r % ~.U.Q.f.%.M.S.P.H.H./.].T.U.",
"z.Q.x.{.^.(.jXiXbXjXyXgXb.j.v.'.'.b.z.*.5Xq = D I } ^ K ^ ~ [ '  .' J J H < q  Xe.5.w.Y.u.n @ d t + ~./.^._.^./.m F.sXpX(.].T.%.",
"U.hX].f.^.'.hXhXVXgXl.j.b.b.l.b.yXj.m.V.+X9 = G L Y Y J J J ^ / ' ' K D 5 - 0  X7.w.U.*.4.x $ d r @ ~.R.^.J.(.).wXG.dXtXk.uX%Xf.",
"%X@X`.#XhX'.n.'.hXlX(.b.b.v.b.b.(.l.d.H.+X0 = S G > > G J A K K J A > D > - 0 q.r.&.w.w.4.u # d i O >X`.).(.K.dXsXsXwXk.k.l.d.g.",
"[.{.`.^.'.v.'.gX'.yXyXgX'.k.l.b.h.k.l.m !.e = , 1 = . 3Xp.1 A D A A > < < = 0 w.&.;.:.w.q.,.+ i u % ~.pX).P.K.H.).wXaXF.iXJ.h.(.",
"^.{.`.^.g.v.v.^.^.x.^.^.j.h.h.j.M M l.k.G.g 0 0 O 7 ; R R , < 1 S S 1 , , ; 0 @.@.&.:.U.!.Y.% x w +.[.I.sXP.P.{.J.j.tXtXaX).fX_.",
"T./.).).(.uX'.'.'.a.^.T.x.j.v.h.l.M J.k.(.#X_.#.*.W.OXw.q.|.T 1 E .XR ; ; ,.0.#.;.=.*.*.@XU.7 7 O.cXL.sXP.xXP.G.d.(.j.rXtXJ.^.(.",
"G.(.J.rXJ.iXuXyX#Xh.T.f.f./.#X).s.m (.rXyX'.$X%X@X!.z.XX&X:.9.,..X9.9.q.Y.6.%.*.Q.%X{.G.l.b.lXkXlX^.l.K.xXI.P.H.'.b.uX].{.).g.yX",
"(.rXrXrXwXiXiXuXv.x.x.x./.@X/.d.B.F.K.k.J.uX].`._.Q.:.c.}.X.@.@.-.;.V.M.M.s.a.T.].%X/.tXb.b.gXkXlXj.M h V xX,X/.^.m./.].]./.].^.",
"'.n.yXrXrXiXiXrX_._.c.c.Q./.^.s.H.N B wXB m V.Z.U.Y.E.>.X.@.g +.4.&.*.T.Z.l a.(.uXuX(.fXyXb.gXkXgXb.m.l <XN I.F.l.J.j.^.hX`.uX(.",
"gXgXgXzXrXrXtXl.x.$X$Xc.x.^.G.B.K.B B eXeXH.L.[.5.$.&.@.@.X.g O.j 2.5.d.Z.l.J.yXuXiX'.j.gXgXgXgXgXc.a.l h D.V P.K.rXhX{.T.Q._._.",
"c.c.gX/.(.).gX#Xn.$Xc.n.c.g.d.d.m F.qXqXbXxXD.C.+.g o.@.X.R o.O.+.j R.C.H.hXJ.(.gXiXzXiXgXfXhX$X@XQ.U.%.j N.I.B wXdXbXhXT.@X@Xn.",
"XX$X_.Q.a.]./.`.@Xc.c.OXz.x.d.s.N V qXxXeXxX6X1.,.,.R w w R R ; % O f ~.cXhXG.tXrXiXzX'.{.%X~.!.e.!.U.!.T.k S.B eXdXaXdX).%XOXc.",
"c.&X&.@X#.5.Y.!.E.OX:.;.=.f.%.S.N V xXZ xXn & ; , = = ; . . . . O X . O 7 % z A.{.pXh.% O O . O O 8 w.!.V.A.H.F.B qXiXiX#X$X$XXX",
"}.:.OXt.OX&.o.-.:.CXOXX.&.*.*.C.N V Z xXxXn % % ; ; ; . = ; O . . O ; O O 7 f C.).^.#.% 7 ; O O O e +X!.*.).H.F.dXqXzXM Q.$XXX&X",
":.E X.-.-.X.R X.X.X.-.w.:.r.&.4.6.,X<X<XxX<XD.=X>X8.9 O . ; ; ; ; O ; w W.~.Y.M.B.B.F.%X6X=X8 O e u.O.&.*.m pXsXwXiXyXoX_.&X$X&X",
":.|.E E E E -.@.@.-.@.-.@.@.r.0.e.5.,X,X,XI.<XD.8.n >X>X>Xp.q.u.i.u.e.C.5.%.N.Z.B M m S.D.>X~.~.q.q.W.*.Z.^.H.aXiXrXgXgXgXc.XX$X",
"|.|.&XE .X-..XE y..X|.y.-.X.y.0.&.4.j c 3.D.3.V <X>X>X3.7.7.4.4.q.q.q.5.%.M.2.N M N B N D.8.8.1.7.1.O.*.l f.aXdXwXiXVXgXXX&XXXXX",
"}.}.&X-.E E y.-.-.-.|.:.|.|.y.y.e.4.Y.3.2.h N.D.D.D.D.8.e.Y.U.*.q.w.6.5.k k k M.N N M B <Xn 1.6.1.f w.U.s.Z.P.wXdXzXoXoXXXXXoXoX"
};
