/* XPM */
static char *ad7f4929ff21465fa5afba0da14cb876T7upotZNAcl0HfRx[] = {
/* columns rows colors chars-per-pixel */
"64 64 256 2 ",
"   c #000B0B",
".  c #000B14",
"X  c #000718",
"o  c #001413",
"O  c #02191B",
"+  c #17151A",
"@  c #001B0B",
"#  c #00251E",
"$  c #011A23",
"%  c #051828",
"&  c #151925",
"*  c #081C33",
"=  c #09132A",
"-  c #221A20",
";  c #002325",
":  c #022929",
">  c #06342A",
",  c #012B3C",
"<  c #072837",
"1  c #142638",
"2  c #023433",
"3  c #01343C",
"4  c #023C3C",
"5  c #093837",
"6  c #15393A",
"7  c #15292D",
"8  c #213B3F",
"9  c #20151B",
"0  c #16492A",
"q  c #17562C",
"w  c #064639",
"e  c #154D34",
"r  c #1A4D33",
"t  c #14443C",
"y  c #154C3C",
"u  c #174738",
"i  c #0C5637",
"p  c #1B5335",
"a  c #15533C",
"s  c #1C533B",
"d  c #1C5A3C",
"f  c #155937",
"g  c #0B472F",
"h  c #22543C",
"j  c #235B3C",
"k  c #265937",
"l  c #225035",
"z  c #0D6637",
"x  c #19693C",
"c  c #1B743B",
"v  c #0F7232",
"b  c #27643B",
"n  c #36663C",
"m  c #25783E",
"M  c #306F37",
"N  c #022D43",
"B  c #0B2B42",
"V  c #032B4C",
"C  c #062647",
"Z  c #162842",
"A  c #023345",
"S  c #0B3344",
"D  c #023C44",
"F  c #0B3D44",
"G  c #02344B",
"H  c #0B344B",
"J  c #033C4C",
"K  c #0B3C4C",
"L  c #133C45",
"P  c #143B4C",
"I  c #163647",
"U  c #022B53",
"Y  c #0A2E57",
"T  c #033452",
"R  c #033C53",
"E  c #0B3B53",
"W  c #083A59",
"Q  c #153C53",
"!  c #112E58",
"~  c #253949",
"^  c #233D58",
"/  c #153663",
"(  c #0B4445",
")  c #03434C",
"_  c #0B424D",
"`  c #024D4C",
"'  c #0B4C4C",
"]  c #074844",
"[  c #134B44",
"{  c #1C4C44",
"}  c #13434C",
"|  c #144B4C",
" . c #1B4C4B",
".. c #184445",
"X. c #095549",
"o. c #145444",
"O. c #1C5444",
"+. c #1C5B43",
"@. c #14534C",
"#. c #1C544C",
"$. c #145C4B",
"%. c #1C5B4B",
"&. c #155D43",
"*. c #034354",
"=. c #0C4354",
"-. c #034C54",
";. c #03445A",
":. c #0A445B",
">. c #034B5B",
",. c #0B4C5B",
"<. c #0D4B53",
"1. c #124453",
"2. c #144C54",
"3. c #1C4C53",
"4. c #174859",
"5. c #025354",
"6. c #04535B",
"7. c #0B535C",
"8. c #025A5A",
"9. c #095856",
"0. c #155554",
"q. c #1C5453",
"w. c #145C54",
"e. c #1C5C54",
"r. c #145D5C",
"t. c #1B5C5C",
"y. c #19535C",
"u. c #244A49",
"i. c #225444",
"p. c #245C43",
"a. c #2A5C44",
"s. c #23534C",
"d. c #235B4C",
"f. c #2B5C4B",
"g. c #2A5549",
"h. c #254B57",
"j. c #235452",
"k. c #2A5552",
"l. c #235C53",
"z. c #2B5A53",
"x. c #245C5B",
"c. c #2A5C5B",
"v. c #25535A",
"b. c #315857",
"n. c #315E47",
"m. c #1C6344",
"M. c #1C6A45",
"N. c #1A634C",
"B. c #1C6B4B",
"V. c #156849",
"C. c #1C734C",
"Z. c #1B7848",
"A. c #05635C",
"S. c #1C6353",
"D. c #1D6C54",
"F. c #1C635C",
"G. c #1C6C5B",
"H. c #156558",
"J. c #1C7353",
"K. c #1C745C",
"L. c #1A7956",
"P. c #0D6E4F",
"I. c #236343",
"U. c #2B6244",
"Y. c #236C45",
"T. c #2C6D43",
"R. c #24634B",
"E. c #2A644C",
"W. c #236B4B",
"Q. c #2B6B4C",
"!. c #336849",
"~. c #24734C",
"^. c #2B744C",
"/. c #267947",
"(. c #35784A",
"). c #246353",
"_. c #2B6354",
"`. c #236C54",
"'. c #2C6B53",
"]. c #236B5B",
"[. c #2B6B5C",
"{. c #25635B",
"}. c #346A58",
"|. c #247453",
" X c #2C7352",
".X c #247B54",
"XX c #2B7C54",
"oX c #24745B",
"OX c #2B745C",
"+X c #2C7C5C",
"@X c #267A5B",
"#X c #367757",
"$X c #044D61",
"%X c #0A4A63",
"&X c #174B64",
"*X c #055462",
"=X c #0C5363",
"-X c #0B5A63",
";X c #085B68",
":X c #125B65",
">X c #135C6B",
",X c #185766",
"<X c #115B70",
"1X c #245865",
"2X c #2E5665",
"3X c #0B6264",
"4X c #066768",
"5X c #1C6363",
"6X c #166767",
"7X c #08736C",
"8X c #18756A",
"9X c #086C71",
"0X c #087A77",
"qX c #167977",
"wX c #166772",
"eX c #276866",
"rX c #376865",
"tX c #257363",
"yX c #2B7463",
"uX c #287967",
"iX c #347866",
"pX c #277872",
"aX c #357273",
"sX c #45794D",
"dX c #447A67",
"fX c #1F8259",
"gX c #23824C",
"hX c #2A854B",
"jX c #36844C",
"kX c #258353",
"lX c #2A8455",
"zX c #2A845B",
"xX c #298759",
"cX c #358759",
"vX c #35945D",
"bX c #08827D",
"nX c #10837E",
"mX c #2A8565",
"MX c #388766",
"NX c #379468",
"BX c #398771",
"VX c #3A9672",
"CX c #298D73",
"ZX c #448658",
"AX c #488950",
"SX c #439365",
"DX c #4C9072",
"FX c #4FAA7A",
"GX c #0E7C83",
"HX c #0D8284",
"JX c #58B18A",
"KX c #6DAF90",
"LX c #589180",
"PX c #6DC593",
"IX c #5DC089",
"UX c #86BEBF",
/* pixels */
",X,X4.h.I I I I &Xv.1XeXoXoXK.H.H.w.G.0.e.[.d.%.d.p.E.h U.p.p.g.z.k.k.{ s.g.f._.!.a.n.b j Y.f m.+.j k M M M M b b T._.}.eXe.F.S.",
",Xy.1Xv.h.6 ~ h.2X4.rXyX+XV.B.tXX.H.X.yXc.o.%.E.E.U.I.j E.E.p._.z.b.s.c.O._.d.h h a.U.h p.x W.m.E.d !.T.M q q (.b b p.O.l._.].w.",
"2.| 3.h.b.h.h...y.x.@.oX@XJXJ.D.tX&.D.S.i [.OX+.W.m.m.I.W.I.d.d.z.s. .c.j.[ d.R.R.d x m.E.I. XW.'.&.+.}.p U.U.p p.p.j E.d.N.R.%.",
"[ 3...{ u u.u.k. .e.R.zX.Xz J.L.V.|.|.OXoXB.B. X|.|.W. X'.%.N.%.@.| [ ' #.[.yX%.m.&.W.M.m.I.E.Q.`.oXo.O.l.{ d.d.p.f ^.^.Y.p.#Xp.",
"dXrX6 u.u g.u y %.m.~.c cXFXZ.L.~..X~.W.C.|.C..X.XXX.X|.W.N.S.$.' ] w 2 > eX].`.N.V.M.&.Y.Y.'.Y.m.J.N.S.t.3. .s.a.DXm M T.DX!.'.",
"n.f.g.g.g.g.i.E.+.W.hXhX/.gXzXC.C.Y.XXFX|.zXzXL.@XzXJ.D.N.S.S.w.X.5.X.2 2 r.G.yXoXoXf f W.f #X XlXVXuX].' x.| g.DX(.m jXSXb !.#X",
"g.n.g.i.n.h s e Q.XXm m m c |..XcXXXMXZ.L.JXfXxXzXmX@X`.N.N.X.H.3X7XpX` tXpXeXX.$.`.m.M.Y.x Y.cXlXgXL.J.X.X.iX}.!.M jXM ZX/.XX X",
"U.a.g.h g.e p U.Q./.m hXm Y.B.&.#XXXzXV.mXkXL.xXL.zX@XD.X.w 2 X.8X8X7X6XqX6X` w i S.R.!. XJXY.c Z.IXgXmXBXBXSXa (.jXjXvXNX.XXX+X",
"!.s a.u s +.p I.M.cXm hX/.c N.y `.m.|.@XmXoXmXuXmX|.|.S.[.[.w.F.8XA.A.A.P.7X8.w w w R.Q.^. XXXC.c kXxXCXZ.P.+XW.(.(.SXhXlXVXCXP.",
"dX!.y i.s s E.Y.m.Y.jX/.(.#XR.#.a X.G.tXmXuXuXJ.uXS.$.o.@.aXeXw.9.5.A.7XbX0X7XH.H.$.+.'.#XQ./.^.L.fXfXmXL.zXC.W.^.(.cXvXkXIXxXCX",
"#XdXr g s p.E.'. XW.^.^.T.}.o.[ | o.eXyXpXuXuXG.].tX[.X.: F.eXr.` A.7XbXbX7X0X7XpXpXo.a Q.#X#X#XyXuXmXP.fXfXz W.m.^.W.i NXNXVXCX",
"p.sX}.s h p.a Q.R.`.#X^.FXi.DX .q.@.{.eXaXtXeX{.F.rXaX{.4 H.H.` ` A.mXbX7X0XbX0XqXH.w #.}.#XI.E.S.BXnXfXnXP.K.W.f d '.i CXCXVXmX",
"#Xh a.a.j !.U.W.).o.m.d s s y [ | ( x.eXeX5XF.0.@.0.eXyXH.6X4X9.8.4XnXnXbXHXGX0X7X9.X.w O.}.E.E.e.].K.K.P.8XV.`.%.a &.D.z NXCXXX",
"}.k a.k l l !.}.%.&.o.R.s r t .. .q.eXeXeXeXt.| 2 4 ] r.6XH.7XnX8X8X0X0XHX0XGXGX7X5.H.w %.}.z.}._.[.P.8XK.G.S.e.y O.a V.L.C.OXW.",
"!.!.j k k k j r #.%.o.a s g y { c.eXeX1Xy.t.x.t.4 4 4 6.6X0X0X0X0X7X7X0X0XGXGXGXqXwX6X4 w [._.dXI.M.|.J.oXG.o.#.s.i.+.i W.'.d #X",
"n.l k !.l n U.E.o.%.&.d d f p.p.z.c._.x.| ' t.t.5X5Xr.A.8.0XnX7X7X7XbXbX0X0XGXGXqX6X5.( | l.{.KXKXKXM.D.D.F.)._.i.o.&.'.W.W.s s ",
"h l n.l }.n.a.p.e a &.f p k n q n n y t 5 ] $.H.pXnXqXqX;X9XbX7X7X0X0XbXHXqX4X:XeXk.: # 5 j.c.}.KXdXd.S.yXN.e.R.o._.E.R.E.m.+.d ",
"g.h u l 0 s s a }. Xi Q.!.T.n n k k r u y ] X.6XqXqXqXGXGX9X4X4XnX7XA.4XqXHX6X5.j.b.o   7 k.rXc...dX}.e.].G.S.G.R.[.E.+.R.E.m.g ",
"a.k l r p.j e  X^.W.Q.f q sXsXl n q +.o.iX@.H.A.A.A.4XqXGX4X4X8X8XA.8.8.4XqX6Xt.3...O % u.k.v.v.rXrX .{.].F.F.H.{.{.e.q.%.O.&.%.",
"k r h h b m.Y.Y.m.m.z b k q n n n b p.d.o.' w.9.` 8.-X3X6X;XA.7X8X7X3XA.5.5.9.0.3.6 6 k.b.6 : ..b.v.q.eXe.w.tX5XeXeXy.@.#.l.).%.",
"s h r p.p I.^.i x B.~.I.q (.n !.!.E.s s.5 [ t.0.4 ` 6X5XX.` 9.6X3X3X6Xr.5.] ` X.<.y.| 3.6 $ < 7 P k. .o.tXtXK.].eXF.t.x.l.O.O.f ",
"s p.s p U.E.f f i f m.~.q b !.b !.p.a.i.{ ..1Xr.<.3 D ' 0.9.r.w.5.5.-.X.( ( 2.t.r.H.r.D ; 2 u.6 6 ..{ [ ].V.X.G.F.r.t.F.e.y s h ",
"O.y i.p p.s f m.m.V.+X.X X^.Y.#X'.}.p.f.5 2 ( 1X,X_ 4 w ] @.' 6.8.7.7.' ( 4 ( r.5X8.wX` ] 2.h.{ ; > u d.'.|.tXK.G.tXF.[ o.'.!.e ",
"y DXy h p.e Q. X|.B..XzXM..XM.M.W.E.p g.i.2 , ,X>XeX0.] ] t.<.>.6.-X5X5X0.F D ` >XwXwX-X:Xr.0.4 ; : 6 #X`.S.mXoXuXH.$.%.s e p p ",
"y _.'.p. Xb E.W.B..X.XL.hXgX/./.#Xd e p.s.e.,X-.7.6Xr.X.` F.6X6X6X;X6X:Xr.<.` -.>X*X<X4X;X3X` ` { # t rX$.N.oX8XL.G.iXm.a e e s ",
"e #Xe Q.Q.d M.~.kXzXlXlXjXhXgXc x Q.e > ( eXeX;X-X5.` 5.9.H.wX;XwX-X6X7.8.6.3X-X>.>.<XwX4X*XA.] t @ # }.[.N.mXB.L.MXB.W.a e }.h ",
"j j #X(././..XZ.xXxXgXkXM m AXM Q.Q.a g 4 ] 6.;X4X5.8.6X6X6.8.*X&X,X:X>.4X;X3X9X4X;X*X;X4X4X6X:X; # dXb.[.S..X@XC.kXx ^.p #Xr h ",
"q k PXq q /.xXgXxXvXhXvXAXM AXsXDXe t > 2 ) 2 wX6X5.A.6X6X6.*X*X>.-.>X-X;X4X4X9X4X9X;X6.*X7.>XeX#   > _.R.MX.XM.Z.gXc jX(.(.k k ",
"k q q ^.cXKXkXZ.gXgXZ./.AXjXsXsXk k u L y.J D wX4X5.5.6.7.7.>X,.-.-.>X6X<X;X4X9X4X4X9X8.) J G , 7 ; > > DXW./.lXFXhXPXjX(.q k k ",
"k k q k q cXM.kXgXfXZ./.AXAXAXsXl l 6 L y.&X6.*XA.8.8.5.7.,X,X-.-.=XwX;XwX;X*X;XwX4X9X3X) < % * ..2Xt # #X^.cXc hXv c /.x (.n q ",
"!.l k a.d m.W.+XL.B..X/.jXAXM b > l u.1X4.;.-X-.` A.3X7.6.:X:X7.9.8.wXwX;X<X<X6.-X,X,Xy._ % * h.^ h.: @ d #X~.cXc kX+X^.^.d q k ",
"k a.g.a.f.d.}.iXMXN.MXXXT.(.AXn 0 > ..K :.=X>.8.5.3X3X7.) *.-.5.8.3X3X-.*X<X<X*X) ) F _ } _ 4.&X&XG < ; @ @ m.XXXX~.XXY.Q.b k n ",
"a.a.g.i.i.z.c.#._.).+.p.#X#XZX!.k > O : ) &X7.) r.,X5X&X-.-.6.6.9.3X-.] -.=X>.;.R *.A D F J =X=XW A A 3.u o E.i  XR.M.'.Q.U.a.a.",
"s.g.i.z.k.k.u.g.j.d.+.E.U.U.h p u ; 3 D ) <.D 3 h.y.4.=.=.=X=X6.-.y.<.D D J R R %X:.) ) -.,.;X;X;.=.y.h.6 o i.E.}.W.R.B.p.p.U.a.",
"a.s.z.g.k.....u.u.O.i.E.a.p.0 u 6 : ] 7.6.7.D , v.h.4.J R ;.:.;.7.y.1.F G H W R *.=X-X7.7.=X;X*X>.,.4.6 % o > n.d.U.R.E.p.R.R.d.",
"f.b.b.u.u.u ..{ u { i.y p.a.y s O.( ` 7.7.7.0.} L K _ 4.>.T R :.=.1.P L S &X&X<XR $X*X6.-X6.>.*X-XJ N % $ O o 6 i.p.p.f.d.d.d.p.",
"f.b.s.k.6 { 6 { t i.y s i.i.h u...F D ,.=X>.<.( F D _ ,.%X;.R ;.K G B , < E &X<X*X;.*.-.*X-.*.*X&XA * : I 8 o u }.R.g.d.d.%.d.q.",
"c.s.k.k. .t y t y s t g.z.s.6 5 u.< A R $X<X,.y.2.0.7.=X*X>.;.*.R G B , * T &X%X*X$X>.>.6.>.*.,.D < * Z ~ 8   6 }.).f.z.d.g.z.c.",
"eXk.rXk.z.{ d.y y e a d._.k.2 ; ; % A =.,X%XJ ) ,.=X,X=X*X*X*X6.*.J A A G 4.&X%X>.;X<X%X;.:.R E E N 1 ^ ~ 7 o u _.d.d.g.s.v.j.k.",
"v.c.c.{.[ l.d.y e e iX'.[.s.L 2 $ < K &X%XR R =X7.=X,.$X=X*X-X*X>.:.:.*.R :.=X=X$X$X=X=X;.R T E Q S < I 1 O   u _._.).d.s.k.b.v.",
"_.v.c.).O.).+.i e i N.OX%.j.F F F <.:.:.$X;.;.<X=X,.W *.%X*.R 7.=X>.-X=X) ) *X=X&X*.;.:.T G E B H B C 1 1 . ; d._.N.).R.s.u.2Xc.",
"t.e.q.).S.$.`.f B.MXW.R.iX] | 1.t.7.;.$X<X%XT W =.D G :.;.D J %X,.%X<X-X*.) 6.,.-.A N T T Q E < , B < % * X t b.f.p.+.d.l.rX2Xc.",
"{.@.{.].N.S.B.B.KXzXBXiX%.w | t.:X-.>.*X<X:.G , < % S &X:.R %X<X%X>.=X-X>.-.-.*.J A V T W =.J , N , < = = . 6 i.E.s '.&.l.%.{.x.",
"{.e.$.S.D.B.z C.NXcXVXVXX.@.@.' ` *.>.$X%X:.H < 1 < 1.,X:.;.=X&XW R ;.%X7.<.D 3 A G W ;.=.R D A J K P I * X 5 k.#Xs W.Q.'.R.e.e.",
"S.].%.V.B.XXV.cXxXFXNXNXX.w ] 4 J J ;.;.R R I 3 < S } -.;.;.%X;.W J J ;.,.F , 2 S H G R %XR D D J J P I < O o s ZX!.Y.^.MXOX{.F.",
"S.$.N.DX.XV.FXxXFXkXxXVXC.X.w ] ) J R :.W W P B 6 K K J *.:.:.:.R R T R =.S : 2 P K T R R *.D ) =.R H B < < o g f cXMXY.#Xi &.yX",
"R.BX+X&.C..XNXmXJXNXC.C.K.$.] ] [ A A E W W K G 2._ K R *.G A D R *.G G P I 1 1 I Q Q R R R ( ( K =.4.I 5 2 5 +..XNXjXXXMXSXN.d.",
"iX[.uX@XDX.XC.kXNXxXC.C.uXoXS.@.t < , N H H E =.K A A 1.=.N , , J E N N I I 1 1 6 I H N A J F 3 J _ } }  .t [.MXzXgXlXx +.M.W.].",
"yXyXoX@XJ.J.L.mX.XVXmXmX.XB.B.V.u 6 O $ * , I Q S N G E H < $ < I H C * 1 Z 1 * X 1 * % < L ( 3 ] ] }.O.p.j Y.lXxXhXZ.NXM.M.tX].",
"OXiXuX.XC.L.L.J.K.V.uXD.J.C.C.V.g e 6 o . O 6 < X < C Z 1 X O & 1 * = = = 1 1 1 X X X $ ; 2 2 w.tXOX+.ZXM T.ZX.XZ.NXhXcXzX+XoXtX",
"|. X|.~.C.zXzXC.oXV.|.OXD.W.~.z z z XXR.o.: O . X * Z Z 1 X % O & & & + X X . . X 6 u.;   5 ].BXDXW.#X#XZX#X^.x lXM.kX.XXXzXoXoX",
"oX.X.X.XkXlXzXzXuXN.`.$.`.M.MXZ.v v cXlX#X_.s.k.= X = = = X   O O + 9 9     o . O h.u.i.f.'.uXVXK.'.T.AXsXjXY./.|.mXlXzXXXM.uXyX",
"@X.XkXlXkXgXxXMXD.N.S.].`.MXW.x c v /.~.iX#XO.b.. % * = * * & & + 9 - + O & 7 : O 5 5 [ d.[.DXDXC.Y.q (.ZX#X#XY.V.B..X|.~.XXoXuX",
"L.zXxXkXhXxXxX.X@XtX].$.].XXC.b Y.M (.Y.&.w ; ( : H ! Q ^ ~ ~ - - + - + & & I 5 2 } ; : : w aXMXMXm.q U.T.ZX^.x .XC.|.SX+X+X@X|.",
"mXmXxXZ.kXxXlXC.D.mXH.tXG.|.~.M.#Xa.s ; ; 3 K 1.E A C H ^ * & 1 - & + + = 1 Z B B N 1.F L 4 o aX$.i I.f T.b #X^.XXMX|.B.`.oXJ.JX",
"G.L.mXC.gXkXxXlXG.tXF.tXD.D.M.m.g.5 I I Q H G N G T U C Z Z 1 - & & & & 1 Z < C C C < S S K | [ 4 f +.d T.T.^.cXcXJXMXC. XoXtXN.",
"5XoXtXuXi +X.X+XyXF.F.tXX.`.V.B.o.D K E H Y C U U U U Y C < 1 1 1 1 1 * B < C C C Y C N N E =.2.4 w [ '.p Y.m hXSXcXSX+XBX].H.uX",
"H.pXX.iX&.R.{.{.{.F.r.S.$.N.m.).0.=.E R V V V V U U U U U C C 1 1 1 B < C C C ! ! U C N A G J <.) ' t o.'.(.b m /.cXlXiX[.uXH.G.",
"eX2.eXc.eX{ [ j.x.UXq.( o.l.).).@.` ) J J T T V Y U U U U C N H H N N W U U U ! / U U T T J ;.-.2.2.q.y #X Xc vXhXhXC.D.yXF.pXpX",
"y._ 1.3.h...I  .} F | v.@.c.#.%.S.t.X.<.) D J 3 E T T U U V A J G C V W U U C U Y Y W T R ;.=X*.0.3. .#.s cXjXvXhXhXzXOXpXr.pX8X",
"y.4.S 4.Q Q h.I } 3.3.3. .j.v.#.d.l.e.q.` ] ( 3 _ E W R T G G R G W W :.T W T U V T %XR T >.,X2.2.j.k.d.#XW.vXhXgXlXmXyXS.pXeX6X",
"eXy.aXQ 4.Q 2XP h.v.v.x.} 3.j.v.#.%.#.e.@.| [ w ( ) E R R J D J E =.:.:.R T W W B V W =.) _ 0.h.{ y i.O.f MXcXc gXPX|.G.pX5X6X6X",
"eX,X2X4.E Q 2Xv.3.3.1Xj.v.&X2Xv.l.%.l.l.j.j.#. .[ ' =.=.R E K ( 1.J ) ) ) 3 3 P L L }  . .[ u.g.u.l }.h M.lXgXvXgXL.K.8XeXpXpX6X",
"r.eXy.,.Q W Q Q 1.3.3.v.v.aXv.y.e.o.l.c.b.b.b.rXs.| <.,.4.1.} } } } ' ' ` 4 F  .{ ..{ k.k.g.8 g.n.a.!.E.~.v vXgXgXfXG.tX6X6X6XG."
};
